<svg xmlns="http://www.w3.org/2000/svg" xmlns:xlink="http://www.w3.org/1999/xlink" width="500" zoomAndPan="magnify" viewBox="0 0 375 374.999991" height="500" preserveAspectRatio="xMidYMid meet" version="1.0"><defs><clipPath id="64b5854904"><path d="M 24 19.523438 L 350.933594 19.523438 L 350.933594 355.523438 L 24 355.523438 Z M 24 19.523438 " clip-rule="nonzero"/></clipPath></defs><g clip-path="url(#64b5854904)"><path fill="#777370" d="M 214.660156 19.523438 L 214.660156 38.523438 L 200.855469 35.585938 L 201.652344 57.980469 L 187.035156 54.871094 L 189.207031 82.996094 L 173.199219 79.605469 L 176.773438 108.042969 L 159.332031 104.339844 L 164.65625 133.140625 L 145.417969 129.058594 L 152.929688 158.328125 L 131.4375 153.765625 L 141.792969 183.640625 L 117.367188 178.453125 L 131.546875 209.140625 L 103.109375 203.109375 L 122.726562 234.957031 L 88.523438 227.691406 L 116.476562 261.300781 L 73.25 252.113281 L 164.171875 330.804688 C 160.582031 330.570312 157.082031 330.335938 153.722656 330.117188 L 74.25 283.222656 L 93.335938 287.269531 L 93.988281 284.191406 L 56.121094 276.128906 L 146.757812 329.617188 C 142.683594 329.320312 138.917969 329.023438 135.59375 328.742188 C 130.519531 328.304688 125.269531 327.867188 119.945312 327.445312 L 70.285156 309.539062 L 70.832031 306.929688 L 51.824219 302.898438 L 50.964844 305.914062 L 108.140625 326.523438 C 67.035156 323.429688 25.511719 321.117188 24.042969 321.117188 L 24.042969 355.523438 L 350.824219 355.523438 L 350.824219 48.433594 Z M 347.6875 352.226562 C 343.203125 351.835938 331.914062 350.835938 316.078125 349.445312 L 316.078125 348.460938 L 320.417969 348.460938 L 320.417969 347.867188 L 346.484375 347.867188 L 346.484375 50.730469 L 347.6875 50.980469 Z M 155.753906 214.265625 L 146.601562 187.859375 L 161.328125 190.984375 L 197.78125 332.976562 C 197.484375 332.960938 197.1875 332.929688 196.875 332.914062 L 156.957031 217.738281 L 163.078125 219.035156 L 163.734375 215.957031 Z M 214.660156 91.636719 L 214.660156 116.089844 L 206.804688 114.417969 L 205.929688 89.777344 Z M 205.824219 86.542969 L 204.949219 61.902344 L 214.660156 63.964844 L 214.660156 88.417969 Z M 295.558594 225.457031 C 295.183594 228.785156 294.777344 232.222656 294.355469 235.753906 L 294.355469 235.503906 C 294.777344 229.832031 295.183594 224.285156 295.558594 218.957031 Z M 299.898438 227.847656 C 299.507812 230.269531 299.101562 232.707031 298.695312 235.160156 L 298.695312 225.628906 C 299.117188 221.863281 299.523438 218.253906 299.898438 214.828125 Z M 304.238281 234.410156 C 303.847656 236.175781 303.457031 237.972656 303.039062 239.800781 L 303.039062 227.644531 C 303.457031 224.988281 303.863281 222.441406 304.238281 220.050781 Z M 308.597656 243.441406 C 308.222656 244.738281 307.816406 246.082031 307.394531 247.488281 L 307.394531 234.878906 C 307.816406 232.894531 308.222656 231.003906 308.597656 229.238281 Z M 312.9375 254.207031 C 312.5625 255.175781 312.15625 256.191406 311.734375 257.253906 L 311.734375 244.035156 C 312.15625 242.550781 312.5625 241.160156 312.9375 239.847656 Z M 317.28125 265.894531 C 316.90625 266.628906 316.5 267.378906 316.078125 268.175781 L 316.078125 254.925781 C 316.515625 253.800781 316.90625 252.753906 317.28125 251.769531 Z M 321.621094 278.175781 C 321.246094 278.707031 320.839844 279.269531 320.417969 279.847656 L 320.417969 266.753906 C 320.855469 265.910156 321.246094 265.128906 321.621094 264.378906 Z M 330.304688 303.804688 C 329.929688 304.054688 329.523438 304.304688 329.101562 304.585938 L 329.101562 292.160156 C 329.539062 291.722656 329.929688 291.316406 330.304688 290.941406 Z M 334.644531 316.835938 C 334.253906 316.976562 333.878906 317.117188 333.441406 317.273438 L 333.441406 305.492188 C 333.878906 305.195312 334.269531 304.929688 334.644531 304.679688 Z M 339.003906 335.054688 C 338.628906 335.101562 338.222656 335.148438 337.800781 335.195312 L 337.800781 319.023438 C 338.238281 318.851562 338.644531 318.710938 339.003906 318.570312 Z M 205.730469 172.75 L 211.257812 328.460938 L 199.152344 171.359375 Z M 198.917969 168.09375 L 197 143.234375 L 204.746094 144.875 L 205.621094 169.515625 Z M 279.238281 339.445312 C 279.597656 338.445312 279.957031 337.367188 280.316406 336.210938 C 280.097656 337.382812 279.863281 338.460938 279.660156 339.429688 C 279.535156 339.445312 279.378906 339.445312 279.238281 339.445312 Z M 275.878906 339.539062 C 275.753906 339.539062 275.644531 339.539062 275.519531 339.554688 C 275.910156 338.820312 276.300781 338.023438 276.707031 337.195312 C 276.425781 338.039062 276.144531 338.820312 275.878906 339.539062 Z M 282.78125 339.335938 C 283.125 337.742188 283.46875 336.007812 283.8125 334.164062 C 283.65625 336.007812 283.515625 337.726562 283.359375 339.304688 C 283.15625 339.320312 282.96875 339.320312 282.78125 339.335938 Z M 272.039062 339.632812 C 271.898438 339.632812 271.773438 339.632812 271.632812 339.648438 C 272.132812 338.992188 272.648438 338.289062 273.144531 337.570312 C 272.773438 338.289062 272.398438 338.976562 272.039062 339.632812 Z M 286.484375 339.179688 C 286.609375 337.898438 286.734375 336.476562 286.875 334.945312 L 286.875 339.164062 C 286.75 339.179688 286.609375 339.179688 286.484375 339.179688 Z M 267.757812 339.710938 C 267.726562 339.710938 267.710938 339.710938 267.679688 339.710938 C 267.804688 339.585938 267.945312 339.476562 268.070312 339.351562 C 267.976562 339.460938 267.867188 339.585938 267.757812 339.710938 Z M 294.355469 338.820312 L 294.355469 331.601562 C 294.761719 331.507812 295.152344 331.429688 295.558594 331.335938 L 295.558594 338.757812 C 295.167969 338.773438 294.761719 338.804688 294.355469 338.820312 Z M 291.214844 338.976562 C 290.808594 338.992188 290.417969 339.007812 290.011719 339.039062 L 290.011719 332.507812 C 290.417969 332.429688 290.808594 332.351562 291.214844 332.257812 Z M 290.011719 329.304688 L 290.011719 327.867188 C 290.417969 327.710938 290.808594 327.554688 291.214844 327.398438 L 291.214844 329.054688 C 290.824219 329.132812 290.417969 329.226562 290.011719 329.304688 Z M 303.054688 338.320312 L 303.054688 329.601562 C 303.457031 329.507812 303.847656 329.398438 304.253906 329.304688 L 304.253906 338.226562 C 303.847656 338.257812 303.441406 338.289062 303.054688 338.320312 Z M 299.898438 338.507812 C 299.507812 338.539062 299.101562 338.554688 298.695312 338.585938 L 298.695312 330.632812 C 299.101562 330.539062 299.492188 330.445312 299.898438 330.351562 Z M 298.695312 327.414062 L 298.695312 324.304688 C 299.101562 324.132812 299.492188 323.960938 299.898438 323.773438 L 299.898438 327.132812 C 299.507812 327.226562 299.101562 327.320312 298.695312 327.414062 Z M 295.558594 328.117188 C 295.167969 328.210938 294.761719 328.289062 294.355469 328.382812 L 294.355469 326.132812 C 294.761719 325.960938 295.152344 325.804688 295.558594 325.632812 Z M 294.355469 322.742188 L 294.355469 320.414062 C 294.746094 320.164062 295.167969 319.898438 295.558594 319.648438 L 295.558594 322.242188 C 295.167969 322.414062 294.761719 322.585938 294.355469 322.742188 Z M 291.214844 324.039062 C 290.824219 324.195312 290.417969 324.351562 290.011719 324.507812 L 290.011719 323.132812 C 290.417969 322.898438 290.808594 322.648438 291.214844 322.414062 Z M 290.011719 319.476562 L 290.011719 318.695312 C 290.417969 318.351562 290.808594 317.992188 291.214844 317.648438 L 291.214844 318.742188 C 290.824219 318.992188 290.417969 319.226562 290.011719 319.476562 Z M 316.078125 337.351562 L 316.078125 326.148438 C 316.484375 326.023438 316.875 325.914062 317.28125 325.804688 L 317.28125 337.257812 C 316.875 337.289062 316.484375 337.320312 316.078125 337.351562 Z M 312.9375 337.617188 C 312.53125 337.648438 312.140625 337.679688 311.734375 337.710938 L 311.734375 327.367188 C 312.140625 327.257812 312.546875 327.148438 312.9375 327.039062 Z M 308.597656 337.929688 C 308.191406 337.960938 307.800781 337.992188 307.394531 338.023438 L 307.394531 328.507812 C 307.800781 328.398438 308.207031 328.304688 308.597656 328.195312 Z M 307.394531 325.273438 L 307.394531 320.304688 C 307.785156 320.117188 308.207031 319.914062 308.597656 319.726562 L 308.597656 324.960938 C 308.191406 325.054688 307.785156 325.164062 307.394531 325.273438 Z M 304.238281 326.070312 C 303.847656 326.164062 303.441406 326.273438 303.039062 326.367188 L 303.039062 322.351562 C 303.441406 322.164062 303.832031 321.976562 304.238281 321.804688 Z M 303.054688 318.898438 L 303.054688 314.476562 C 303.457031 314.179688 303.847656 313.882812 304.253906 313.585938 L 304.253906 318.335938 C 303.847656 318.523438 303.441406 318.710938 303.054688 318.898438 Z M 299.898438 320.351562 C 299.507812 320.523438 299.101562 320.695312 298.695312 320.882812 L 298.695312 317.539062 C 299.101562 317.257812 299.492188 316.992188 299.898438 316.710938 Z M 298.695312 313.742188 L 298.695312 310.585938 C 299.101562 310.179688 299.492188 309.773438 299.898438 309.382812 L 299.898438 312.882812 C 299.507812 313.179688 299.117188 313.460938 298.695312 313.742188 Z M 295.558594 315.898438 C 295.167969 316.164062 294.761719 316.429688 294.355469 316.695312 L 294.355469 314.789062 C 294.761719 314.414062 295.152344 314.039062 295.558594 313.664062 Z M 295.558594 309.039062 C 295.167969 309.429688 294.761719 309.820312 294.355469 310.210938 L 294.355469 308.570312 C 294.761719 308.054688 295.152344 307.523438 295.558594 306.992188 Z M 291.214844 313.179688 C 290.824219 313.539062 290.417969 313.914062 290.011719 314.273438 L 290.011719 313.992188 C 290.417969 313.507812 290.808594 313.023438 291.214844 312.539062 Z M 324.761719 340.257812 L 324.761719 339.742188 C 325.167969 339.710938 325.554688 339.664062 325.960938 339.632812 L 325.960938 340.273438 L 324.761719 340.273438 Z M 321.621094 340.257812 L 320.417969 340.257812 L 320.417969 340.132812 C 320.824219 340.101562 321.214844 340.054688 321.621094 340.023438 Z M 320.417969 336.976562 L 320.417969 324.851562 C 320.824219 324.726562 321.230469 324.601562 321.621094 324.492188 L 321.621094 336.867188 C 321.230469 336.914062 320.824219 336.945312 320.417969 336.976562 Z M 320.417969 321.585938 L 320.417969 313.460938 C 320.824219 313.226562 321.230469 313.007812 321.621094 312.773438 L 321.621094 321.210938 C 321.214844 321.335938 320.839844 321.460938 320.417969 321.585938 Z M 317.28125 322.523438 C 316.890625 322.632812 316.484375 322.757812 316.078125 322.867188 L 316.078125 315.851562 C 316.484375 315.632812 316.875 315.414062 317.28125 315.195312 Z M 312.9375 323.773438 C 312.546875 323.882812 312.140625 323.992188 311.734375 324.101562 L 311.734375 318.132812 C 312.140625 317.929688 312.53125 317.710938 312.9375 317.507812 Z M 311.734375 314.617188 L 311.734375 307.820312 C 312.140625 307.492188 312.53125 307.164062 312.9375 306.835938 L 312.9375 313.976562 C 312.53125 314.195312 312.140625 314.398438 311.734375 314.617188 Z M 308.597656 316.210938 C 308.191406 316.414062 307.800781 316.617188 307.394531 316.820312 L 307.394531 311.226562 C 307.800781 310.914062 308.207031 310.617188 308.597656 310.304688 Z M 307.394531 307.273438 L 307.394531 301.367188 C 307.800781 300.914062 308.191406 300.460938 308.597656 300.003906 L 308.597656 306.335938 C 308.207031 306.648438 307.785156 306.960938 307.394531 307.273438 Z M 304.238281 309.695312 C 303.847656 309.992188 303.441406 310.289062 303.039062 310.601562 L 303.039062 306.132812 C 303.441406 305.710938 303.832031 305.273438 304.238281 304.851562 Z M 303.054688 301.257812 L 303.054688 296.441406 C 303.457031 295.832031 303.847656 295.238281 304.253906 294.628906 L 304.253906 299.925781 C 303.847656 300.378906 303.441406 300.820312 303.054688 301.257812 Z M 299.898438 304.632812 C 299.507812 305.054688 299.101562 305.460938 298.695312 305.882812 L 298.695312 302.726562 C 299.101562 302.164062 299.492188 301.601562 299.898438 301.039062 Z M 298.695312 297.003906 L 298.695312 293.847656 C 299.101562 293.066406 299.492188 292.300781 299.898438 291.519531 L 299.898438 295.238281 C 299.507812 295.832031 299.101562 296.410156 298.695312 297.003906 Z M 295.558594 301.460938 C 295.167969 302.007812 294.761719 302.554688 294.355469 303.101562 L 294.355469 301.867188 C 294.761719 301.148438 295.152344 300.429688 295.558594 299.722656 Z M 294.355469 295.191406 L 294.355469 294.457031 C 294.761719 293.472656 295.152344 292.503906 295.558594 291.519531 L 295.558594 292.910156 C 295.167969 293.675781 294.761719 294.425781 294.355469 295.191406 Z M 333.457031 340.257812 L 333.457031 338.851562 C 333.863281 338.804688 334.269531 338.757812 334.660156 338.726562 L 334.660156 340.273438 L 333.457031 340.273438 Z M 330.304688 340.257812 L 329.101562 340.257812 L 329.101562 339.304688 C 329.507812 339.257812 329.914062 339.226562 330.304688 339.179688 Z M 329.101562 336.148438 L 329.101562 322.101562 C 329.507812 321.960938 329.914062 321.835938 330.304688 321.695312 L 330.304688 336.023438 C 329.914062 336.070312 329.507812 336.117188 329.101562 336.148438 Z M 325.960938 336.460938 C 325.570312 336.492188 325.167969 336.539062 324.761719 336.570312 L 324.761719 323.507812 C 325.167969 323.382812 325.554688 323.257812 325.960938 323.117188 Z M 324.761719 320.226562 L 324.761719 310.945312 C 325.167969 310.710938 325.570312 310.460938 325.960938 310.226562 L 325.960938 319.835938 C 325.570312 319.960938 325.167969 320.085938 324.761719 320.226562 Z M 324.761719 307.289062 L 324.761719 296.410156 C 325.183594 296.019531 325.570312 295.628906 325.960938 295.253906 L 325.960938 306.554688 C 325.570312 306.789062 325.183594 307.039062 324.761719 307.289062 Z M 321.621094 309.148438 C 321.214844 309.382812 320.839844 309.617188 320.417969 309.851562 L 320.417969 300.414062 C 320.839844 300.039062 321.214844 299.675781 321.621094 299.316406 Z M 317.28125 311.632812 C 316.890625 311.851562 316.484375 312.070312 316.078125 312.289062 L 316.078125 304.210938 C 316.484375 303.867188 316.890625 303.523438 317.28125 303.179688 Z M 316.078125 300.066406 L 316.078125 290.972656 C 316.484375 290.457031 316.890625 289.941406 317.28125 289.441406 L 317.28125 299.019531 C 316.890625 299.363281 316.484375 299.707031 316.078125 300.066406 Z M 312.9375 302.757812 C 312.53125 303.101562 312.15625 303.429688 311.734375 303.773438 L 311.734375 296.316406 C 312.140625 295.832031 312.546875 295.347656 312.9375 294.863281 Z M 311.734375 291.175781 L 311.734375 282.582031 C 312.140625 281.894531 312.546875 281.207031 312.9375 280.519531 L 312.9375 289.691406 C 312.546875 290.175781 312.140625 290.675781 311.734375 291.175781 Z M 308.597656 294.957031 C 308.207031 295.425781 307.800781 295.894531 307.394531 296.363281 L 307.394531 289.738281 C 307.800781 289.097656 308.207031 288.441406 308.597656 287.800781 Z M 307.394531 283.503906 L 307.394531 275.832031 C 307.800781 274.925781 308.207031 274.019531 308.597656 273.128906 L 308.597656 281.503906 C 308.191406 282.160156 307.800781 282.832031 307.394531 283.503906 Z M 304.238281 288.597656 C 303.847656 289.222656 303.441406 289.847656 303.039062 290.472656 L 303.039062 285.175781 C 303.441406 284.332031 303.847656 283.503906 304.238281 282.660156 Z M 303.054688 277.597656 L 303.054688 271.425781 C 303.457031 270.253906 303.863281 269.082031 304.253906 267.925781 L 304.253906 274.957031 C 303.847656 275.832031 303.457031 276.707031 303.054688 277.597656 Z M 299.898438 284.269531 C 299.507812 285.082031 299.101562 285.910156 298.695312 286.722656 L 298.695312 283.457031 C 299.101562 282.378906 299.507812 281.300781 299.898438 280.238281 Z M 298.695312 274.175781 L 298.695312 271.097656 C 299.101562 269.566406 299.507812 268.050781 299.898438 266.535156 L 299.898438 270.753906 C 299.507812 271.878906 299.101562 273.035156 298.695312 274.175781 Z M 295.558594 282.800781 C 295.386719 283.269531 295.214844 283.722656 295.027344 284.191406 C 295.199219 283.597656 295.371094 282.988281 295.558594 282.394531 Z M 295.136719 271.769531 C 295.277344 271.050781 295.417969 270.347656 295.558594 269.628906 L 295.558594 270.175781 C 295.417969 270.707031 295.277344 271.238281 295.136719 271.769531 Z M 208.523438 333.773438 C 208.492188 333.773438 208.445312 333.773438 208.414062 333.757812 L 187.628906 168.90625 L 195.96875 170.671875 Z M 333.457031 344.414062 L 337.800781 344.414062 L 337.800781 343.398438 L 342.140625 343.398438 L 342.140625 337.820312 C 342.59375 337.757812 342.984375 337.710938 343.34375 337.664062 L 343.34375 344.695312 L 333.457031 344.695312 Z M 339.003906 340.257812 L 337.800781 340.257812 L 337.800781 338.351562 C 338.222656 338.304688 338.613281 338.257812 339.003906 338.210938 Z M 334.644531 335.554688 C 334.253906 335.601562 333.847656 335.648438 333.441406 335.695312 L 333.441406 320.617188 C 333.847656 320.476562 334.253906 320.320312 334.644531 320.195312 Z M 330.304688 318.382812 C 329.914062 318.523438 329.523438 318.648438 329.101562 318.789062 L 329.101562 308.289062 C 329.507812 308.039062 329.929688 307.773438 330.304688 307.539062 Z M 325.960938 290.863281 C 325.585938 291.238281 325.183594 291.628906 324.761719 292.050781 L 324.761719 279.253906 C 325.199219 278.628906 325.585938 278.050781 325.960938 277.503906 Z M 321.621094 295.050781 C 321.230469 295.410156 320.824219 295.785156 320.417969 296.160156 L 320.417969 285.300781 C 320.839844 284.738281 321.230469 284.207031 321.621094 283.675781 Z M 317.28125 284.113281 C 316.890625 284.628906 316.484375 285.144531 316.078125 285.691406 L 316.078125 274.941406 C 316.484375 274.191406 316.890625 273.457031 317.28125 272.738281 Z M 312.9375 273.957031 C 312.546875 274.644531 312.140625 275.363281 311.734375 276.082031 L 311.734375 265.769531 C 312.140625 264.785156 312.546875 263.800781 312.9375 262.863281 Z M 308.597656 264.957031 C 308.207031 265.878906 307.800781 266.832031 307.394531 267.785156 L 307.394531 258.316406 C 307.800781 257.019531 308.207031 255.738281 308.597656 254.488281 Z M 304.238281 257.660156 C 303.847656 258.878906 303.441406 260.113281 303.039062 261.378906 L 303.039062 253.941406 C 303.441406 252.222656 303.847656 250.535156 304.238281 248.878906 Z M 299.898438 253.207031 C 299.507812 254.816406 299.101562 256.441406 298.695312 258.066406 L 298.695312 253.082031 C 299.101562 250.816406 299.507812 248.582031 299.898438 246.363281 Z M 295.558594 253.066406 C 295.371094 254.097656 295.183594 255.113281 294.980469 256.144531 C 295.167969 254.660156 295.371094 253.191406 295.558594 251.722656 Z M 214.660156 334.273438 C 214.644531 334.273438 214.644531 334.273438 214.628906 334.273438 L 208.914062 173.4375 L 209.554688 173.578125 L 210.210938 170.5 L 208.804688 170.203125 L 207.929688 145.5625 L 214.675781 147 L 214.675781 334.273438 Z M 207.804688 142.296875 L 206.929688 117.652344 L 214.660156 119.292969 L 214.660156 143.75 Z M 203.636719 113.746094 L 194.578125 111.824219 L 192.65625 86.964844 L 202.746094 89.105469 Z M 203.746094 116.980469 L 204.621094 141.625 L 196.75 139.953125 L 194.828125 115.089844 Z M 193.546875 139.28125 L 183.628906 137.171875 L 180.460938 112.042969 L 191.625 114.417969 Z M 193.796875 142.546875 L 195.71875 167.40625 L 187.222656 165.609375 L 184.050781 140.484375 Z M 183.957031 164.90625 L 173.324219 162.640625 L 168.621094 137.1875 L 180.804688 139.765625 Z M 184.378906 168.21875 L 205.214844 333.523438 C 205.105469 333.523438 205.011719 333.507812 204.902344 333.507812 L 179.257812 194.8125 L 186.300781 196.3125 L 186.957031 193.234375 L 178.632812 191.46875 L 173.933594 166.015625 Z M 175.308594 190.75 L 163.890625 188.328125 L 157.253906 162.46875 L 170.605469 165.3125 Z M 175.929688 194.09375 L 201.652344 333.257812 C 201.464844 333.242188 201.277344 333.226562 201.089844 333.210938 L 164.765625 191.71875 Z M 193.484375 332.695312 C 193.015625 332.664062 192.5625 332.632812 192.09375 332.601562 L 137.0625 213.515625 L 153.382812 216.988281 Z M 303.054688 351.476562 L 303.347656 351.476562 C 306.878906 351.789062 310.253906 352.085938 313.453125 352.367188 L 303.039062 352.367188 L 303.039062 351.476562 Z M 217.800781 23.398438 L 343.34375 50.058594 L 343.34375 334.492188 C 343 334.539062 342.609375 334.585938 342.140625 334.648438 L 342.140625 50.417969 L 339.003906 50.417969 L 339.003906 315.195312 C 338.691406 315.320312 338.269531 315.476562 337.800781 315.664062 L 337.800781 57.824219 L 334.660156 57.824219 L 334.660156 300.851562 C 334.363281 301.054688 333.957031 301.351562 333.457031 301.695312 L 333.457031 65.230469 L 330.304688 65.230469 L 330.304688 286.363281 C 330.039062 286.660156 329.648438 287.082031 329.101562 287.644531 L 329.101562 72.652344 L 325.960938 72.652344 L 325.960938 271.800781 C 325.726562 272.160156 325.324219 272.785156 324.761719 273.628906 L 324.761719 80.058594 L 321.621094 80.058594 L 321.621094 257.160156 C 321.417969 257.582031 321.011719 258.441406 320.417969 259.660156 L 320.417969 87.464844 L 317.28125 87.464844 L 317.28125 242.472656 C 317.125 242.941406 316.71875 244.097656 316.078125 245.847656 L 316.078125 94.886719 L 312.9375 94.886719 L 312.9375 227.800781 C 312.8125 228.316406 312.390625 229.894531 311.734375 232.316406 L 311.734375 102.292969 L 308.597656 102.292969 L 308.597656 213.0625 C 308.238281 215 307.832031 217.097656 307.394531 219.316406 L 307.394531 109.699219 L 304.253906 109.699219 L 304.253906 198.34375 C 303.878906 201.171875 303.472656 204.09375 303.054688 207.078125 L 303.054688 117.121094 L 299.914062 117.121094 L 299.914062 183.609375 C 299.867188 184.09375 299.445312 188.671875 298.710938 196.046875 L 298.710938 124.542969 L 295.570312 124.542969 L 295.570312 168.875 C 295.542969 169.328125 295.121094 177 294.371094 188.9375 L 294.371094 131.953125 L 291.230469 131.953125 L 291.230469 154.125 C 290.902344 167.390625 290.496094 181.84375 290.027344 196.71875 L 290.027344 139.359375 L 286.890625 139.359375 L 286.890625 281.363281 C 286.765625 284.128906 286.640625 286.832031 286.515625 289.503906 C 286.234375 292.316406 285.953125 295.003906 285.671875 297.566406 C 285.265625 299.960938 284.859375 302.226562 284.453125 304.382812 C 283.796875 306.867188 283.140625 309.273438 282.484375 311.601562 C 281.703125 313.648438 280.90625 315.617188 280.113281 317.523438 C 279.378906 318.851562 278.644531 320.148438 277.894531 321.414062 C 276.800781 322.820312 275.707031 324.195312 274.597656 325.507812 C 273.253906 326.726562 271.898438 327.882812 270.523438 328.976562 C 269.023438 329.882812 267.507812 330.742188 265.976562 331.539062 C 264.371094 332.148438 262.746094 332.726562 261.089844 333.257812 C 259.433594 333.601562 257.765625 333.929688 256.078125 334.226562 C 243.816406 335.273438 230.902344 335.507812 217.816406 334.492188 L 217.816406 147.640625 L 232.792969 150.8125 L 233.449219 147.734375 L 217.816406 144.421875 L 217.816406 119.964844 L 256.015625 128.074219 L 256.671875 124.996094 L 217.800781 116.746094 L 217.800781 92.292969 L 279.238281 105.339844 L 279.894531 102.261719 L 217.800781 89.074219 L 217.800781 64.621094 L 302.460938 82.605469 L 303.113281 79.527344 L 217.800781 61.402344 L 217.800781 42.398438 L 325.695312 65.308594 L 326.351562 62.230469 L 217.800781 39.179688 Z M 204.152344 39.507812 L 214.660156 41.742188 L 214.660156 60.746094 L 204.824219 58.652344 Z M 190.503906 58.824219 L 201.777344 61.214844 L 202.652344 85.855469 L 192.421875 83.683594 Z M 176.882812 83.605469 L 189.472656 86.277344 L 191.390625 111.136719 L 180.054688 108.730469 Z M 163.28125 108.386719 L 177.195312 111.339844 L 180.367188 136.46875 L 167.984375 133.84375 Z M 149.742188 133.1875 L 165.28125 136.484375 L 169.980469 161.9375 L 156.363281 159.046875 Z M 136.25 158 L 153.816406 161.734375 L 160.457031 187.59375 L 145.402344 184.390625 Z M 122.867188 182.828125 L 143.011719 187.109375 L 152.164062 213.515625 L 135.40625 209.953125 Z M 109.667969 207.703125 L 133.21875 212.703125 L 188.519531 332.367188 C 187.816406 332.320312 187.113281 332.273438 186.394531 332.226562 L 129.285156 239.535156 L 139.855469 241.785156 L 140.511719 238.707031 L 127.003906 235.847656 Z M 125.035156 238.628906 L 182.554688 331.976562 C 181.445312 331.898438 180.351562 331.835938 179.242188 331.757812 L 96.785156 232.628906 Z M 84.589844 257.722656 L 116.617188 264.519531 L 117.148438 262.035156 L 174.917969 331.492188 C 174.746094 331.476562 174.558594 331.476562 174.386719 331.460938 C 172.714844 331.351562 171.058594 331.242188 169.402344 331.148438 Z M 84.589844 257.722656 " fill-opacity="1" fill-rule="nonzero"/></g></svg>