<svg xmlns="http://www.w3.org/2000/svg" xmlns:xlink="http://www.w3.org/1999/xlink" width="503" zoomAndPan="magnify" viewBox="0 0 377.25 207.749994" height="277" preserveAspectRatio="xMidYMid meet" version="1.0"><defs><g/><clipPath id="d97d46a881"><path d="M 0 0.0820312 L 202.097656 0.0820312 L 202.097656 207.417969 L 0 207.417969 Z M 0 0.0820312 " clip-rule="nonzero"/></clipPath></defs><g clip-path="url(#d97d46a881)"><path fill="#777370" d="M 117.878906 0.0820312 L 117.878906 11.804688 L 109.34375 9.992188 L 109.835938 23.8125 L 100.804688 21.890625 L 102.144531 39.25 L 92.25 37.15625 L 94.460938 54.703125 L 83.679688 52.417969 L 86.972656 70.191406 L 75.078125 67.671875 L 79.722656 85.734375 L 66.441406 82.917969 L 72.839844 101.355469 L 57.742188 98.152344 L 66.507812 117.089844 L 48.929688 113.367188 L 61.054688 133.019531 L 39.914062 128.535156 L 57.195312 149.277344 L 30.476562 143.605469 L 86.671875 192.164062 C 84.453125 192.019531 82.289062 191.875 80.214844 191.742188 L 31.09375 162.804688 L 42.890625 165.300781 L 43.292969 163.402344 L 19.886719 158.425781 L 75.910156 191.433594 C 73.390625 191.25 71.0625 191.066406 69.007812 190.890625 C 65.871094 190.621094 62.628906 190.351562 59.335938 190.09375 L 28.640625 179.042969 L 28.980469 177.433594 L 17.234375 174.945312 L 16.703125 176.804688 L 52.039062 189.523438 C 26.632812 187.613281 0.96875 186.1875 0.0625 186.1875 L 0.0625 207.417969 L 202.035156 207.417969 L 202.035156 17.917969 Z M 200.097656 205.382812 C 197.328125 205.144531 190.347656 204.527344 180.558594 203.667969 L 180.558594 203.0625 L 183.242188 203.0625 L 183.242188 202.695312 L 199.351562 202.695312 L 199.351562 19.335938 L 200.097656 19.492188 Z M 81.46875 120.253906 L 75.8125 103.957031 L 84.914062 105.886719 L 107.445312 193.503906 C 107.261719 193.496094 107.078125 193.476562 106.882812 193.464844 L 82.210938 122.394531 L 85.996094 123.195312 L 86.402344 121.292969 Z M 117.878906 44.582031 L 117.878906 59.671875 L 113.023438 58.640625 L 112.480469 43.433594 Z M 112.414062 41.4375 L 111.875 26.230469 L 117.878906 27.503906 L 117.878906 42.59375 Z M 167.878906 127.15625 C 167.644531 129.210938 167.394531 131.332031 167.132812 133.511719 L 167.132812 133.355469 C 167.394531 129.855469 167.644531 126.433594 167.878906 123.144531 Z M 170.558594 128.632812 C 170.320312 130.125 170.066406 131.632812 169.816406 133.144531 L 169.816406 127.261719 C 170.078125 124.9375 170.328125 122.710938 170.558594 120.601562 Z M 173.242188 132.683594 C 173.003906 133.769531 172.761719 134.878906 172.5 136.007812 L 172.5 128.507812 C 172.761719 126.867188 173.011719 125.296875 173.242188 123.820312 Z M 175.9375 138.253906 C 175.707031 139.054688 175.453125 139.882812 175.195312 140.753906 L 175.195312 132.972656 C 175.453125 131.746094 175.707031 130.578125 175.9375 129.492188 Z M 178.621094 144.898438 C 178.386719 145.496094 178.136719 146.125 177.875 146.777344 L 177.875 138.621094 C 178.136719 137.707031 178.386719 136.847656 178.621094 136.039062 Z M 181.304688 152.109375 C 181.070312 152.5625 180.820312 153.027344 180.558594 153.519531 L 180.558594 145.34375 C 180.832031 144.648438 181.070312 144 181.304688 143.394531 Z M 183.988281 159.691406 C 183.753906 160.019531 183.503906 160.363281 183.242188 160.722656 L 183.242188 152.640625 C 183.515625 152.121094 183.753906 151.636719 183.988281 151.175781 Z M 189.355469 175.503906 C 189.121094 175.65625 188.871094 175.8125 188.609375 175.984375 L 188.609375 168.320312 C 188.878906 168.050781 189.121094 167.800781 189.355469 167.566406 Z M 192.035156 183.542969 C 191.796875 183.632812 191.5625 183.71875 191.292969 183.816406 L 191.292969 176.542969 C 191.5625 176.363281 191.804688 176.199219 192.035156 176.042969 Z M 194.730469 194.789062 C 194.5 194.816406 194.246094 194.84375 193.988281 194.875 L 193.988281 184.894531 C 194.257812 184.789062 194.507812 184.703125 194.730469 184.613281 Z M 112.355469 94.632812 L 115.773438 190.71875 L 108.292969 93.773438 Z M 108.148438 91.761719 L 106.960938 76.417969 L 111.75 77.433594 L 112.289062 92.636719 Z M 157.789062 197.496094 C 158.011719 196.878906 158.234375 196.214844 158.457031 195.5 C 158.320312 196.222656 158.175781 196.890625 158.050781 197.488281 C 157.972656 197.496094 157.878906 197.496094 157.789062 197.496094 Z M 155.714844 197.554688 C 155.636719 197.554688 155.570312 197.554688 155.492188 197.566406 C 155.734375 197.113281 155.976562 196.621094 156.226562 196.109375 C 156.054688 196.628906 155.878906 197.113281 155.714844 197.554688 Z M 159.980469 197.429688 C 160.195312 196.445312 160.40625 195.375 160.617188 194.238281 C 160.523438 195.375 160.433594 196.4375 160.339844 197.410156 C 160.214844 197.421875 160.097656 197.421875 159.980469 197.429688 Z M 153.339844 197.613281 C 153.253906 197.613281 153.175781 197.613281 153.089844 197.621094 C 153.398438 197.21875 153.71875 196.785156 154.027344 196.339844 C 153.792969 196.785156 153.5625 197.207031 153.339844 197.613281 Z M 162.269531 197.332031 C 162.347656 196.542969 162.421875 195.664062 162.511719 194.71875 L 162.511719 197.324219 C 162.433594 197.332031 162.347656 197.332031 162.269531 197.332031 Z M 150.695312 197.660156 C 150.675781 197.660156 150.667969 197.660156 150.648438 197.660156 C 150.726562 197.585938 150.8125 197.515625 150.890625 197.4375 C 150.832031 197.507812 150.761719 197.585938 150.695312 197.660156 Z M 167.132812 197.113281 L 167.132812 192.65625 C 167.386719 192.597656 167.625 192.550781 167.878906 192.492188 L 167.878906 197.074219 C 167.636719 197.082031 167.386719 197.101562 167.132812 197.113281 Z M 165.195312 197.207031 C 164.941406 197.21875 164.703125 197.226562 164.449219 197.246094 L 164.449219 193.214844 C 164.703125 193.167969 164.941406 193.121094 165.195312 193.0625 Z M 164.449219 191.238281 L 164.449219 190.351562 C 164.703125 190.257812 164.941406 190.160156 165.195312 190.0625 L 165.195312 191.085938 C 164.953125 191.132812 164.703125 191.191406 164.449219 191.238281 Z M 172.511719 196.804688 L 172.511719 191.421875 C 172.761719 191.363281 173.003906 191.296875 173.253906 191.238281 L 173.253906 196.746094 C 173.003906 196.765625 172.75 196.785156 172.511719 196.804688 Z M 170.558594 196.917969 C 170.320312 196.9375 170.066406 196.949219 169.816406 196.96875 L 169.816406 192.058594 C 170.066406 192 170.308594 191.941406 170.558594 191.886719 Z M 169.816406 190.074219 L 169.816406 188.152344 C 170.066406 188.046875 170.308594 187.941406 170.558594 187.824219 L 170.558594 189.898438 C 170.320312 189.957031 170.066406 190.015625 169.816406 190.074219 Z M 167.878906 190.507812 C 167.636719 190.5625 167.386719 190.613281 167.132812 190.671875 L 167.132812 189.28125 C 167.386719 189.175781 167.625 189.078125 167.878906 188.972656 Z M 167.132812 187.191406 L 167.132812 185.753906 C 167.375 185.597656 167.636719 185.433594 167.878906 185.28125 L 167.878906 186.882812 C 167.636719 186.988281 167.386719 187.09375 167.132812 187.191406 Z M 165.195312 187.988281 C 164.953125 188.085938 164.703125 188.183594 164.449219 188.277344 L 164.449219 187.429688 C 164.703125 187.285156 164.941406 187.132812 165.195312 186.988281 Z M 164.449219 185.175781 L 164.449219 184.691406 C 164.703125 184.480469 164.941406 184.257812 165.195312 184.046875 L 165.195312 184.722656 C 164.953125 184.875 164.703125 185.019531 164.449219 185.175781 Z M 180.558594 196.207031 L 180.558594 189.292969 C 180.8125 189.214844 181.050781 189.148438 181.304688 189.078125 L 181.304688 196.148438 C 181.050781 196.167969 180.8125 196.1875 180.558594 196.207031 Z M 178.621094 196.367188 C 178.371094 196.386719 178.128906 196.40625 177.875 196.425781 L 177.875 190.042969 C 178.128906 189.976562 178.378906 189.910156 178.621094 189.839844 Z M 175.9375 196.5625 C 175.6875 196.582031 175.445312 196.601562 175.195312 196.621094 L 175.195312 190.746094 C 175.445312 190.679688 175.695312 190.621094 175.9375 190.554688 Z M 175.195312 188.75 L 175.195312 185.683594 C 175.433594 185.570312 175.695312 185.445312 175.9375 185.328125 L 175.9375 188.558594 C 175.6875 188.617188 175.433594 188.683594 175.195312 188.75 Z M 173.242188 189.242188 C 173.003906 189.300781 172.75 189.367188 172.5 189.425781 L 172.5 186.949219 C 172.75 186.832031 172.992188 186.71875 173.242188 186.609375 Z M 172.511719 184.816406 L 172.511719 182.089844 C 172.761719 181.90625 173.003906 181.722656 173.253906 181.539062 L 173.253906 184.46875 C 173.003906 184.585938 172.75 184.703125 172.511719 184.816406 Z M 170.558594 185.714844 C 170.320312 185.820312 170.066406 185.925781 169.816406 186.042969 L 169.816406 183.980469 C 170.066406 183.804688 170.308594 183.640625 170.558594 183.46875 Z M 169.816406 181.636719 L 169.816406 179.6875 C 170.066406 179.4375 170.308594 179.1875 170.558594 178.945312 L 170.558594 181.105469 C 170.320312 181.289062 170.078125 181.460938 169.816406 181.636719 Z M 167.878906 182.964844 C 167.636719 183.128906 167.386719 183.292969 167.132812 183.457031 L 167.132812 182.28125 C 167.386719 182.050781 167.625 181.820312 167.878906 181.585938 Z M 167.878906 178.734375 C 167.636719 178.972656 167.386719 179.214844 167.132812 179.457031 L 167.132812 178.445312 C 167.386719 178.125 167.625 177.796875 167.878906 177.46875 Z M 165.195312 181.289062 C 164.953125 181.511719 164.703125 181.742188 164.449219 181.964844 L 164.449219 181.789062 C 164.703125 181.492188 164.941406 181.191406 165.195312 180.894531 Z M 185.925781 198 L 185.925781 197.679688 C 186.179688 197.660156 186.417969 197.632812 186.671875 197.613281 L 186.671875 198.007812 L 185.925781 198.007812 Z M 183.988281 198 L 183.242188 198 L 183.242188 197.921875 C 183.496094 197.902344 183.734375 197.875 183.988281 197.855469 Z M 183.242188 195.972656 L 183.242188 188.492188 C 183.496094 188.414062 183.746094 188.335938 183.988281 188.269531 L 183.988281 195.90625 C 183.746094 195.933594 183.496094 195.953125 183.242188 195.972656 Z M 183.242188 186.476562 L 183.242188 181.460938 C 183.496094 181.316406 183.746094 181.183594 183.988281 181.039062 L 183.988281 186.246094 C 183.734375 186.320312 183.503906 186.398438 183.242188 186.476562 Z M 181.304688 187.054688 C 181.0625 187.121094 180.8125 187.199219 180.558594 187.265625 L 180.558594 182.9375 C 180.8125 182.800781 181.050781 182.667969 181.304688 182.53125 Z M 178.621094 187.824219 C 178.378906 187.894531 178.128906 187.960938 177.875 188.027344 L 177.875 184.34375 C 178.128906 184.21875 178.371094 184.085938 178.621094 183.960938 Z M 177.875 182.175781 L 177.875 177.980469 C 178.128906 177.777344 178.371094 177.578125 178.621094 177.375 L 178.621094 181.78125 C 178.371094 181.914062 178.128906 182.039062 177.875 182.175781 Z M 175.9375 183.160156 C 175.6875 183.285156 175.445312 183.410156 175.195312 183.535156 L 175.195312 180.082031 C 175.445312 179.890625 175.695312 179.707031 175.9375 179.515625 Z M 175.195312 177.644531 L 175.195312 174 C 175.445312 173.71875 175.6875 173.441406 175.9375 173.160156 L 175.9375 177.066406 C 175.695312 177.257812 175.433594 177.449219 175.195312 177.644531 Z M 173.242188 179.136719 C 173.003906 179.320312 172.75 179.503906 172.5 179.699219 L 172.5 176.941406 C 172.75 176.679688 172.992188 176.410156 173.242188 176.148438 Z M 172.511719 173.929688 L 172.511719 170.960938 C 172.761719 170.585938 173.003906 170.21875 173.253906 169.84375 L 173.253906 173.113281 C 173.003906 173.390625 172.75 173.660156 172.511719 173.929688 Z M 170.558594 176.015625 C 170.320312 176.273438 170.066406 176.523438 169.816406 176.785156 L 169.816406 174.835938 C 170.066406 174.492188 170.308594 174.144531 170.558594 173.796875 Z M 169.816406 171.308594 L 169.816406 169.359375 C 170.066406 168.878906 170.308594 168.40625 170.558594 167.925781 L 170.558594 170.21875 C 170.320312 170.585938 170.066406 170.941406 169.816406 171.308594 Z M 167.878906 174.058594 C 167.636719 174.394531 167.386719 174.730469 167.132812 175.070312 L 167.132812 174.308594 C 167.386719 173.863281 167.625 173.421875 167.878906 172.988281 Z M 167.132812 170.191406 L 167.132812 169.738281 C 167.386719 169.128906 167.625 168.53125 167.878906 167.925781 L 167.878906 168.78125 C 167.636719 169.253906 167.386719 169.71875 167.132812 170.191406 Z M 191.304688 198 L 191.304688 197.128906 C 191.554688 197.101562 191.804688 197.074219 192.046875 197.054688 L 192.046875 198.007812 L 191.304688 198.007812 Z M 189.355469 198 L 188.609375 198 L 188.609375 197.410156 C 188.859375 197.382812 189.113281 197.363281 189.355469 197.332031 Z M 188.609375 195.460938 L 188.609375 186.792969 C 188.859375 186.707031 189.113281 186.628906 189.355469 186.542969 L 189.355469 195.386719 C 189.113281 195.414062 188.859375 195.445312 188.609375 195.460938 Z M 186.671875 195.65625 C 186.429688 195.675781 186.179688 195.703125 185.925781 195.722656 L 185.925781 187.664062 C 186.179688 187.585938 186.417969 187.507812 186.671875 187.421875 Z M 185.925781 185.636719 L 185.925781 179.910156 C 186.179688 179.765625 186.429688 179.609375 186.671875 179.464844 L 186.671875 185.394531 C 186.429688 185.472656 186.179688 185.550781 185.925781 185.636719 Z M 185.925781 177.652344 L 185.925781 170.941406 C 186.1875 170.703125 186.429688 170.460938 186.671875 170.230469 L 186.671875 177.199219 C 186.429688 177.34375 186.1875 177.5 185.925781 177.652344 Z M 183.988281 178.800781 C 183.734375 178.945312 183.503906 179.089844 183.242188 179.234375 L 183.242188 173.410156 C 183.503906 173.179688 183.734375 172.957031 183.988281 172.734375 Z M 181.304688 180.332031 C 181.0625 180.46875 180.8125 180.605469 180.558594 180.738281 L 180.558594 175.753906 C 180.8125 175.542969 181.0625 175.328125 181.304688 175.117188 Z M 180.558594 173.199219 L 180.558594 167.585938 C 180.8125 167.269531 181.0625 166.949219 181.304688 166.640625 L 181.304688 172.550781 C 181.0625 172.765625 180.8125 172.976562 180.558594 173.199219 Z M 178.621094 174.855469 C 178.371094 175.070312 178.136719 175.273438 177.875 175.484375 L 177.875 170.882812 C 178.128906 170.585938 178.378906 170.285156 178.621094 169.988281 Z M 177.875 167.710938 L 177.875 162.410156 C 178.128906 161.984375 178.378906 161.558594 178.621094 161.136719 L 178.621094 166.796875 C 178.378906 167.09375 178.128906 167.402344 177.875 167.710938 Z M 175.9375 170.046875 C 175.695312 170.335938 175.445312 170.625 175.195312 170.914062 L 175.195312 166.824219 C 175.445312 166.429688 175.695312 166.023438 175.9375 165.628906 Z M 175.195312 162.976562 L 175.195312 158.242188 C 175.445312 157.683594 175.695312 157.125 175.9375 156.574219 L 175.9375 161.742188 C 175.6875 162.148438 175.445312 162.5625 175.195312 162.976562 Z M 173.242188 166.121094 C 173.003906 166.507812 172.75 166.894531 172.5 167.277344 L 172.5 164.007812 C 172.75 163.488281 173.003906 162.976562 173.242188 162.457031 Z M 172.511719 159.332031 L 172.511719 155.523438 C 172.761719 154.800781 173.011719 154.078125 173.253906 153.363281 L 173.253906 157.703125 C 173.003906 158.242188 172.761719 158.785156 172.511719 159.332031 Z M 170.558594 163.449219 C 170.320312 163.953125 170.066406 164.460938 169.816406 164.964844 L 169.816406 162.949219 C 170.066406 162.285156 170.320312 161.617188 170.558594 160.960938 Z M 169.816406 157.222656 L 169.816406 155.320312 C 170.066406 154.378906 170.320312 153.441406 170.558594 152.507812 L 170.558594 155.109375 C 170.320312 155.804688 170.066406 156.515625 169.816406 157.222656 Z M 167.878906 162.542969 C 167.769531 162.832031 167.664062 163.113281 167.550781 163.402344 C 167.65625 163.035156 167.761719 162.660156 167.878906 162.292969 Z M 167.617188 155.738281 C 167.703125 155.292969 167.789062 154.859375 167.878906 154.414062 L 167.878906 154.753906 C 167.789062 155.082031 167.703125 155.410156 167.617188 155.738281 Z M 114.085938 193.996094 C 114.066406 193.996094 114.035156 193.996094 114.015625 193.988281 L 101.167969 92.261719 L 106.324219 93.351562 Z M 191.304688 200.5625 L 193.988281 200.5625 L 193.988281 199.9375 L 196.671875 199.9375 L 196.671875 196.496094 C 196.949219 196.457031 197.191406 196.425781 197.414062 196.398438 L 197.414062 200.738281 L 191.304688 200.738281 Z M 194.730469 198 L 193.988281 198 L 193.988281 196.824219 C 194.246094 196.792969 194.488281 196.765625 194.730469 196.734375 Z M 192.035156 195.097656 C 191.796875 195.125 191.542969 195.152344 191.292969 195.183594 L 191.292969 185.878906 C 191.542969 185.792969 191.796875 185.695312 192.035156 185.617188 Z M 189.355469 184.5 C 189.113281 184.585938 188.871094 184.664062 188.609375 184.75 L 188.609375 178.269531 C 188.859375 178.117188 189.121094 177.953125 189.355469 177.808594 Z M 186.671875 167.519531 C 186.4375 167.75 186.1875 167.992188 185.925781 168.253906 L 185.925781 160.355469 C 186.195312 159.96875 186.4375 159.613281 186.671875 159.273438 Z M 183.988281 170.105469 C 183.746094 170.324219 183.496094 170.558594 183.242188 170.789062 L 183.242188 164.085938 C 183.503906 163.738281 183.746094 163.410156 183.988281 163.082031 Z M 181.304688 163.355469 C 181.0625 163.671875 180.8125 163.992188 180.558594 164.328125 L 180.558594 157.695312 C 180.8125 157.230469 181.0625 156.777344 181.304688 156.335938 Z M 178.621094 157.085938 C 178.378906 157.511719 178.128906 157.953125 177.875 158.398438 L 177.875 152.035156 C 178.128906 151.425781 178.378906 150.820312 178.621094 150.242188 Z M 175.9375 151.53125 C 175.695312 152.101562 175.445312 152.691406 175.195312 153.277344 L 175.195312 147.433594 C 175.445312 146.632812 175.695312 145.84375 175.9375 145.070312 Z M 173.242188 147.03125 C 173.003906 147.78125 172.75 148.542969 172.5 149.324219 L 172.5 144.734375 C 172.75 143.675781 173.003906 142.632812 173.242188 141.609375 Z M 170.558594 144.28125 C 170.320312 145.273438 170.066406 146.277344 169.816406 147.28125 L 169.816406 144.203125 C 170.066406 142.804688 170.320312 141.425781 170.558594 140.058594 Z M 167.878906 144.195312 C 167.761719 144.832031 167.644531 145.457031 167.519531 146.09375 C 167.636719 145.179688 167.761719 144.273438 167.878906 143.367188 Z M 117.878906 194.304688 C 117.867188 194.304688 117.867188 194.304688 117.859375 194.304688 L 114.324219 95.058594 L 114.722656 95.144531 L 115.128906 93.246094 L 114.257812 93.0625 L 113.71875 77.855469 L 117.886719 78.742188 L 117.886719 194.304688 Z M 113.640625 75.839844 L 113.101562 60.636719 L 117.878906 61.648438 L 117.878906 76.738281 Z M 111.0625 58.222656 L 105.464844 57.039062 L 104.277344 41.699219 L 110.511719 43.019531 Z M 111.132812 60.21875 L 111.671875 75.425781 L 106.808594 74.394531 L 105.621094 59.054688 Z M 104.828125 73.980469 L 98.699219 72.679688 L 96.738281 57.171875 L 103.640625 58.640625 Z M 104.984375 75.996094 L 106.167969 91.335938 L 100.917969 90.226562 L 98.960938 74.722656 Z M 98.902344 89.792969 L 92.328125 88.394531 L 89.421875 72.6875 L 96.953125 74.277344 Z M 99.160156 91.835938 L 112.039062 193.84375 C 111.972656 193.84375 111.914062 193.832031 111.84375 193.832031 L 95.996094 108.25 L 100.347656 109.175781 L 100.753906 107.273438 L 95.609375 106.183594 L 92.703125 90.476562 Z M 93.554688 105.742188 L 86.5 104.246094 L 82.394531 88.289062 L 90.648438 90.042969 Z M 93.941406 107.804688 L 109.835938 193.679688 C 109.722656 193.667969 109.605469 193.660156 109.488281 193.648438 L 87.039062 106.339844 Z M 104.789062 193.332031 C 104.5 193.3125 104.21875 193.292969 103.929688 193.273438 L 69.914062 119.789062 L 80.003906 121.929688 Z M 172.511719 204.921875 L 172.695312 204.921875 C 174.875 205.113281 176.960938 205.296875 178.9375 205.472656 L 172.5 205.472656 L 172.5 204.921875 Z M 119.816406 2.472656 L 197.414062 18.921875 L 197.414062 194.441406 C 197.199219 194.46875 196.960938 194.5 196.671875 194.535156 L 196.671875 19.144531 L 194.730469 19.144531 L 194.730469 182.53125 C 194.535156 182.609375 194.277344 182.707031 193.988281 182.820312 L 193.988281 23.714844 L 192.046875 23.714844 L 192.046875 173.679688 C 191.863281 173.804688 191.613281 173.988281 191.304688 174.203125 L 191.304688 28.285156 L 189.355469 28.285156 L 189.355469 164.742188 C 189.191406 164.925781 188.949219 165.1875 188.609375 165.53125 L 188.609375 32.863281 L 186.671875 32.863281 L 186.671875 155.753906 C 186.527344 155.976562 186.273438 156.363281 185.925781 156.882812 L 185.925781 37.433594 L 183.988281 37.433594 L 183.988281 146.722656 C 183.863281 146.980469 183.609375 147.511719 183.242188 148.265625 L 183.242188 42.007812 L 181.304688 42.007812 L 181.304688 137.65625 C 181.207031 137.945312 180.957031 138.660156 180.558594 139.738281 L 180.558594 46.585938 L 178.621094 46.585938 L 178.621094 128.601562 C 178.542969 128.921875 178.28125 129.894531 177.875 131.390625 L 177.875 51.15625 L 175.9375 51.15625 L 175.9375 119.511719 C 175.714844 120.707031 175.464844 122 175.195312 123.367188 L 175.195312 55.726562 L 173.253906 55.726562 L 173.253906 110.425781 C 173.023438 112.171875 172.769531 113.976562 172.511719 115.816406 L 172.511719 60.308594 L 170.570312 60.308594 L 170.570312 101.335938 C 170.542969 101.632812 170.28125 104.457031 169.828125 109.011719 L 169.828125 64.886719 L 167.886719 64.886719 L 167.886719 92.242188 C 167.867188 92.523438 167.605469 97.257812 167.144531 104.621094 L 167.144531 69.457031 L 165.203125 69.457031 L 165.203125 83.140625 C 165 91.328125 164.75 100.246094 164.460938 109.425781 L 164.460938 74.027344 L 162.519531 74.027344 L 162.519531 161.65625 C 162.441406 163.363281 162.367188 165.03125 162.289062 166.679688 C 162.113281 168.417969 161.941406 170.074219 161.765625 171.65625 C 161.515625 173.132812 161.265625 174.53125 161.015625 175.859375 C 160.609375 177.394531 160.203125 178.878906 159.796875 180.316406 C 159.316406 181.578125 158.824219 182.792969 158.332031 183.96875 C 157.878906 184.789062 157.421875 185.589844 156.960938 186.371094 C 156.285156 187.238281 155.609375 188.085938 154.921875 188.894531 C 154.09375 189.648438 153.253906 190.363281 152.40625 191.035156 C 151.476562 191.597656 150.542969 192.125 149.59375 192.617188 C 148.601562 192.996094 147.597656 193.351562 146.574219 193.679688 C 145.550781 193.890625 144.519531 194.09375 143.476562 194.277344 C 135.898438 194.921875 127.917969 195.066406 119.828125 194.441406 L 119.828125 79.136719 L 129.085938 81.097656 L 129.488281 79.195312 L 119.828125 77.152344 L 119.828125 62.0625 L 143.4375 67.066406 L 143.84375 65.167969 L 119.816406 60.074219 L 119.816406 44.984375 L 157.789062 53.035156 L 158.195312 51.136719 L 119.816406 43 L 119.816406 27.910156 L 172.144531 39.007812 L 172.546875 37.109375 L 119.816406 25.921875 L 119.816406 14.199219 L 186.507812 28.332031 L 186.910156 26.433594 L 119.816406 12.210938 Z M 111.382812 12.414062 L 117.878906 13.792969 L 117.878906 25.519531 L 111.796875 24.226562 Z M 102.945312 24.332031 L 109.914062 25.808594 L 110.457031 41.011719 L 104.132812 39.671875 Z M 94.527344 39.625 L 102.308594 41.273438 L 103.496094 56.613281 L 96.488281 55.128906 Z M 86.121094 54.917969 L 94.722656 56.738281 L 96.679688 72.242188 L 89.027344 70.625 Z M 77.753906 70.21875 L 87.355469 72.253906 L 90.261719 87.960938 L 81.847656 86.175781 Z M 69.414062 85.53125 L 80.273438 87.835938 L 84.375 103.792969 L 75.070312 101.816406 Z M 61.140625 100.851562 L 73.59375 103.496094 L 79.25 119.789062 L 68.890625 117.589844 Z M 52.984375 116.203125 L 67.539062 119.289062 L 101.71875 193.128906 C 101.285156 193.101562 100.851562 193.070312 100.40625 193.042969 L 65.109375 135.84375 L 71.644531 137.234375 L 72.046875 135.332031 L 63.699219 133.570312 Z M 62.484375 135.285156 L 98.03125 192.886719 C 97.347656 192.839844 96.671875 192.800781 95.988281 192.753906 L 45.023438 131.582031 Z M 37.484375 147.066406 L 57.28125 151.261719 L 57.609375 149.730469 L 93.3125 192.589844 C 93.207031 192.578125 93.089844 192.578125 92.984375 192.570312 C 91.953125 192.503906 90.929688 192.433594 89.90625 192.378906 Z M 37.484375 147.066406 " fill-opacity="1" fill-rule="nonzero"/></g><g fill="#777370" fill-opacity="1"><g transform="translate(220.476132, 65.938474)"><g><path d="M 20.0625 -14.265625 C 20.0625 -14.171875 19.984375 -14.109375 19.828125 -14.078125 C 19.679688 -14.054688 19.515625 -14.046875 19.328125 -14.046875 C 19.148438 -14.046875 18.984375 -14.054688 18.828125 -14.078125 C 18.679688 -14.109375 18.609375 -14.171875 18.609375 -14.265625 C 18.460938 -14.429688 18.351562 -14.582031 18.28125 -14.71875 C 18.21875 -14.851562 18.035156 -14.992188 17.734375 -15.140625 C 17.285156 -15.492188 16.753906 -15.65625 16.140625 -15.625 C 15.523438 -15.601562 14.90625 -15.476562 14.28125 -15.25 C 13.65625 -15.03125 13.046875 -14.738281 12.453125 -14.375 C 11.867188 -14.019531 11.394531 -13.6875 11.03125 -13.375 C 9.5625 -12.507812 8.234375 -11.554688 7.046875 -10.515625 C 5.859375 -9.472656 4.75 -8.296875 3.71875 -6.984375 C 3.5 -6.671875 3.222656 -6.273438 2.890625 -5.796875 C 2.554688 -5.328125 2.257812 -4.820312 2 -4.28125 C 1.75 -3.738281 1.597656 -3.1875 1.546875 -2.625 C 1.492188 -2.070312 1.644531 -1.570312 2 -1.125 C 2.445312 -0.675781 3.039062 -0.476562 3.78125 -0.53125 C 4.519531 -0.59375 5.179688 -0.707031 5.765625 -0.875 C 7.109375 -1.019531 8.46875 -1.28125 9.84375 -1.65625 C 11.226562 -2.03125 12.585938 -2.441406 13.921875 -2.890625 C 14.003906 -2.890625 14.125 -2.875 14.28125 -2.84375 C 14.4375 -2.8125 14.585938 -2.773438 14.734375 -2.734375 C 14.890625 -2.691406 15.007812 -2.65625 15.09375 -2.625 C 15.175781 -2.601562 15.175781 -2.59375 15.09375 -2.59375 C 14.144531 -2.226562 13.132812 -1.847656 12.0625 -1.453125 C 10.988281 -1.066406 9.894531 -0.75 8.78125 -0.5 C 7.664062 -0.25 6.554688 -0.101562 5.453125 -0.0625 C 4.359375 -0.0195312 3.296875 -0.179688 2.265625 -0.546875 C 1.285156 -0.796875 0.660156 -1.195312 0.390625 -1.75 C 0.128906 -2.3125 0.09375 -2.953125 0.28125 -3.671875 C 0.476562 -4.398438 0.84375 -5.160156 1.375 -5.953125 C 1.90625 -6.753906 2.484375 -7.515625 3.109375 -8.234375 C 3.742188 -8.960938 4.359375 -9.601562 4.953125 -10.15625 C 5.554688 -10.71875 6.023438 -11.125 6.359375 -11.375 C 7.523438 -12.375 8.753906 -13.285156 10.046875 -14.109375 C 11.347656 -14.929688 12.753906 -15.566406 14.265625 -16.015625 C 14.765625 -16.097656 15.289062 -16.144531 15.84375 -16.15625 C 16.40625 -16.175781 16.945312 -16.128906 17.46875 -16.015625 C 18 -15.898438 18.488281 -15.703125 18.9375 -15.421875 C 19.382812 -15.148438 19.757812 -14.765625 20.0625 -14.265625 Z M 20.0625 -14.265625 "/></g></g></g><g fill="#777370" fill-opacity="1"><g transform="translate(237.907765, 65.938474)"><g><path d="M 14.546875 -15.890625 C 14.828125 -15.890625 15 -15.835938 15.0625 -15.734375 C 15.132812 -15.640625 15.128906 -15.535156 15.046875 -15.421875 C 14.960938 -15.316406 14.84375 -15.210938 14.6875 -15.109375 C 14.539062 -15.015625 14.398438 -14.96875 14.265625 -14.96875 C 13.953125 -15.050781 13.628906 -15.050781 13.296875 -14.96875 C 12.960938 -14.882812 12.617188 -14.75 12.265625 -14.5625 C 11.921875 -14.382812 11.59375 -14.175781 11.28125 -13.9375 C 10.976562 -13.707031 10.71875 -13.476562 10.5 -13.25 C 9.46875 -12.695312 8.519531 -12.007812 7.65625 -11.1875 C 6.789062 -10.363281 5.992188 -9.503906 5.265625 -8.609375 C 4.546875 -7.890625 3.859375 -7.144531 3.203125 -6.375 C 2.546875 -5.601562 2.0625 -4.703125 1.75 -3.671875 C 1.476562 -2.640625 1.597656 -1.859375 2.109375 -1.328125 C 2.628906 -0.804688 3.390625 -0.628906 4.390625 -0.796875 C 5.117188 -0.929688 5.828125 -1.1875 6.515625 -1.5625 C 7.210938 -1.9375 7.875 -2.367188 8.5 -2.859375 C 9.132812 -3.347656 9.742188 -3.863281 10.328125 -4.40625 C 10.910156 -4.945312 11.453125 -5.472656 11.953125 -5.984375 C 12.679688 -7.035156 13.441406 -8.070312 14.234375 -9.09375 C 15.023438 -10.113281 15.703125 -11.207031 16.265625 -12.375 C 16.265625 -12.457031 16.289062 -12.578125 16.34375 -12.734375 C 16.40625 -12.890625 16.457031 -13.050781 16.5 -13.21875 C 16.539062 -13.382812 16.550781 -13.53125 16.53125 -13.65625 C 16.519531 -13.78125 16.429688 -13.84375 16.265625 -13.84375 C 16.128906 -13.976562 15.882812 -14.003906 15.53125 -13.921875 C 15.1875 -13.835938 14.859375 -13.726562 14.546875 -13.59375 C 12.796875 -12.976562 11.128906 -12.203125 9.546875 -11.265625 C 7.972656 -10.335938 6.445312 -9.359375 4.96875 -8.328125 C 4.832031 -8.265625 4.664062 -8.234375 4.46875 -8.234375 C 4.28125 -8.234375 4.113281 -8.257812 3.96875 -8.3125 C 3.832031 -8.375 3.734375 -8.453125 3.671875 -8.546875 C 3.617188 -8.648438 3.664062 -8.785156 3.8125 -8.953125 C 4.976562 -9.671875 6.203125 -10.382812 7.484375 -11.09375 C 8.765625 -11.8125 10.0625 -12.53125 11.375 -13.25 C 11.65625 -13.394531 12.070312 -13.601562 12.625 -13.875 C 13.1875 -14.15625 13.785156 -14.398438 14.421875 -14.609375 C 15.066406 -14.816406 15.6875 -14.925781 16.28125 -14.9375 C 16.882812 -14.957031 17.378906 -14.785156 17.765625 -14.421875 C 17.960938 -14.054688 18.039062 -13.664062 18 -13.25 C 17.957031 -12.832031 17.851562 -12.421875 17.6875 -12.015625 C 17.519531 -11.617188 17.332031 -11.242188 17.125 -10.890625 C 16.914062 -10.546875 16.738281 -10.273438 16.59375 -10.078125 C 15.875 -8.910156 15.085938 -7.863281 14.234375 -6.9375 C 13.390625 -6.019531 12.519531 -5.128906 11.625 -4.265625 C 11.125 -3.847656 10.597656 -3.410156 10.046875 -2.953125 C 9.503906 -2.492188 8.945312 -2.070312 8.375 -1.6875 C 7.8125 -1.3125 7.222656 -0.988281 6.609375 -0.71875 C 5.992188 -0.457031 5.363281 -0.300781 4.71875 -0.25 C 4.363281 -0.164062 3.960938 -0.109375 3.515625 -0.078125 C 3.066406 -0.0546875 2.625 -0.078125 2.1875 -0.140625 C 1.757812 -0.210938 1.378906 -0.347656 1.046875 -0.546875 C 0.710938 -0.742188 0.460938 -1.019531 0.296875 -1.375 C 0.015625 -2.101562 -0.0195312 -2.816406 0.1875 -3.515625 C 0.394531 -4.210938 0.738281 -4.851562 1.21875 -5.4375 C 1.800781 -6.46875 2.441406 -7.414062 3.140625 -8.28125 C 3.835938 -9.144531 4.546875 -9.9375 5.265625 -10.65625 C 6.128906 -11.382812 7 -12.101562 7.875 -12.8125 C 8.757812 -13.519531 9.632812 -14.15625 10.5 -14.71875 C 11.050781 -15.019531 11.679688 -15.320312 12.390625 -15.625 C 13.109375 -15.9375 13.828125 -16.023438 14.546875 -15.890625 Z M 21.484375 -16.4375 C 21.566406 -16.4375 21.65625 -16.378906 21.75 -16.265625 C 21.851562 -16.148438 21.929688 -16.035156 21.984375 -15.921875 C 22.046875 -15.816406 22.066406 -15.75 22.046875 -15.71875 C 22.035156 -15.6875 21.945312 -15.742188 21.78125 -15.890625 C 21.925781 -15.742188 22 -15.644531 22 -15.59375 C 22 -15.539062 21.925781 -15.441406 21.78125 -15.296875 C 21.644531 -15.296875 21.519531 -15.234375 21.40625 -15.109375 C 21.289062 -14.984375 21.234375 -14.851562 21.234375 -14.71875 C 20.929688 -14.414062 20.640625 -14.125 20.359375 -13.84375 C 20.078125 -13.5625 19.769531 -13.269531 19.4375 -12.96875 C 18.601562 -12.101562 17.800781 -11.222656 17.03125 -10.328125 C 16.269531 -9.429688 15.523438 -8.484375 14.796875 -7.484375 C 14.578125 -7.097656 14.332031 -6.707031 14.0625 -6.3125 C 13.800781 -5.925781 13.546875 -5.519531 13.296875 -5.09375 C 13.046875 -4.675781 12.820312 -4.25 12.625 -3.8125 C 12.425781 -3.382812 12.285156 -2.960938 12.203125 -2.546875 L 12.203125 -2.265625 C 12.097656 -2.285156 12.015625 -2.328125 11.953125 -2.390625 C 11.785156 -2.492188 11.785156 -2.546875 11.953125 -2.546875 L 13.09375 -2.546875 C 13.675781 -2.691406 14.257812 -2.894531 14.84375 -3.15625 C 15.425781 -3.414062 16.007812 -3.6875 16.59375 -3.96875 C 16.675781 -4.050781 16.78125 -4.046875 16.90625 -3.953125 C 17.03125 -3.859375 17.140625 -3.738281 17.234375 -3.59375 C 17.335938 -3.457031 17.414062 -3.3125 17.46875 -3.15625 C 17.53125 -3 17.519531 -2.878906 17.4375 -2.796875 C 17.070312 -2.578125 16.617188 -2.332031 16.078125 -2.0625 C 15.535156 -1.800781 14.984375 -1.597656 14.421875 -1.453125 C 13.867188 -1.316406 13.332031 -1.289062 12.8125 -1.375 C 12.300781 -1.457031 11.90625 -1.753906 11.625 -2.265625 C 11.40625 -2.679688 11.316406 -3.117188 11.359375 -3.578125 C 11.398438 -4.035156 11.507812 -4.476562 11.6875 -4.90625 C 11.863281 -5.34375 12.082031 -5.75 12.34375 -6.125 C 12.613281 -6.5 12.863281 -6.84375 13.09375 -7.15625 C 13.226562 -7.34375 13.503906 -7.726562 13.921875 -8.3125 C 14.335938 -8.90625 14.820312 -9.578125 15.375 -10.328125 C 15.9375 -11.078125 16.535156 -11.851562 17.171875 -12.65625 C 17.816406 -13.46875 18.425781 -14.179688 19 -14.796875 C 19.570312 -15.410156 20.082031 -15.882812 20.53125 -16.21875 C 20.976562 -16.550781 21.296875 -16.625 21.484375 -16.4375 Z M 21.484375 -16.4375 "/></g></g></g><g fill="#777370" fill-opacity="1"><g transform="translate(257.053281, 65.938474)"><g><path d="M 10.78125 -28.46875 C 10.78125 -28.695312 10.84375 -28.8125 10.96875 -28.8125 C 11.09375 -28.8125 11.222656 -28.753906 11.359375 -28.640625 C 11.503906 -28.523438 11.625 -28.382812 11.71875 -28.21875 C 11.820312 -28.050781 11.832031 -27.925781 11.75 -27.84375 C 11.351562 -25.414062 10.8125 -23.023438 10.125 -20.671875 C 9.445312 -18.316406 8.675781 -15.992188 7.8125 -13.703125 C 6.945312 -11.421875 6.019531 -9.164062 5.03125 -6.9375 C 4.039062 -4.707031 3.03125 -2.503906 2 -0.328125 C 1.914062 -0.160156 1.8125 -0.101562 1.6875 -0.15625 C 1.5625 -0.21875 1.441406 -0.320312 1.328125 -0.46875 C 1.222656 -0.625 1.132812 -0.804688 1.0625 -1.015625 C 1 -1.234375 1.007812 -1.425781 1.09375 -1.59375 C 3.125 -5.820312 5.007812 -10.179688 6.75 -14.671875 C 8.488281 -19.160156 9.832031 -23.757812 10.78125 -28.46875 Z M 1.09375 -13.46875 C 0.925781 -13.46875 0.753906 -13.5 0.578125 -13.5625 C 0.410156 -13.632812 0.28125 -13.71875 0.1875 -13.8125 C 0.09375 -13.914062 0.0546875 -14.019531 0.078125 -14.125 C 0.109375 -14.238281 0.234375 -14.335938 0.453125 -14.421875 C 2.210938 -14.898438 3.878906 -15.3125 5.453125 -15.65625 C 7.023438 -16.007812 8.59375 -16.421875 10.15625 -16.890625 C 10.632812 -17.023438 10.976562 -16.992188 11.1875 -16.796875 C 11.394531 -16.609375 11.257812 -16.429688 10.78125 -16.265625 C 9.195312 -15.617188 7.582031 -15.109375 5.9375 -14.734375 C 4.289062 -14.359375 2.675781 -13.9375 1.09375 -13.46875 Z M 1.09375 -13.46875 "/></g></g></g><g fill="#777370" fill-opacity="1"><g transform="translate(267.712909, 65.938474)"><g><path d="M 3.046875 -6.359375 C 2.910156 -6.441406 2.789062 -6.546875 2.6875 -6.671875 C 2.59375 -6.796875 2.53125 -6.910156 2.5 -7.015625 C 2.476562 -7.128906 2.507812 -7.222656 2.59375 -7.296875 C 2.675781 -7.367188 2.828125 -7.363281 3.046875 -7.28125 C 3.410156 -7.113281 3.828125 -7.070312 4.296875 -7.15625 C 4.773438 -7.238281 5.238281 -7.375 5.6875 -7.5625 C 6.132812 -7.757812 6.546875 -7.988281 6.921875 -8.25 C 7.296875 -8.519531 7.59375 -8.765625 7.8125 -8.984375 C 8.707031 -9.460938 9.566406 -10.039062 10.390625 -10.71875 C 11.210938 -11.40625 11.929688 -12.125 12.546875 -12.875 C 12.679688 -13.1875 12.859375 -13.476562 13.078125 -13.75 C 13.304688 -14.03125 13.421875 -14.328125 13.421875 -14.640625 C 13.421875 -14.941406 13.335938 -15.117188 13.171875 -15.171875 C 13.003906 -15.234375 12.695312 -15.265625 12.25 -15.265625 C 11.71875 -15.179688 11.207031 -15.019531 10.71875 -14.78125 C 10.238281 -14.539062 9.765625 -14.257812 9.296875 -13.9375 C 8.835938 -13.625 8.382812 -13.289062 7.9375 -12.9375 C 7.5 -12.59375 7.054688 -12.265625 6.609375 -11.953125 C 5.710938 -11.066406 4.859375 -10.109375 4.046875 -9.078125 C 3.242188 -8.046875 2.617188 -6.941406 2.171875 -5.765625 C 1.953125 -5.234375 1.828125 -4.6875 1.796875 -4.125 C 1.765625 -3.570312 1.851562 -3.066406 2.0625 -2.609375 C 2.28125 -2.148438 2.609375 -1.765625 3.046875 -1.453125 C 3.492188 -1.148438 4.09375 -1 4.84375 -1 C 6.039062 -1 7.257812 -1.265625 8.5 -1.796875 C 9.75 -2.328125 10.890625 -2.953125 11.921875 -3.671875 C 12.804688 -4.429688 13.644531 -5.203125 14.4375 -5.984375 C 15.238281 -6.765625 15.789062 -7.671875 16.09375 -8.703125 C 16.238281 -8.703125 16.320312 -8.640625 16.34375 -8.515625 C 16.375 -8.390625 16.390625 -8.253906 16.390625 -8.109375 C 16.390625 -8.253906 16.375 -8.335938 16.34375 -8.359375 C 16.320312 -8.390625 16.238281 -8.40625 16.09375 -8.40625 C 16.238281 -8.40625 16.382812 -8.351562 16.53125 -8.25 C 16.6875 -8.15625 16.832031 -8.109375 16.96875 -8.109375 C 16.945312 -8.054688 16.894531 -8.015625 16.8125 -7.984375 C 16.664062 -7.898438 16.523438 -7.859375 16.390625 -7.859375 C 16.304688 -7.773438 16.1875 -7.757812 16.03125 -7.8125 C 15.882812 -7.875 15.734375 -7.953125 15.578125 -8.046875 C 15.421875 -8.140625 15.300781 -8.25 15.21875 -8.375 C 15.132812 -8.507812 15.132812 -8.617188 15.21875 -8.703125 C 15.664062 -9.003906 16.003906 -9.113281 16.234375 -9.03125 C 16.472656 -8.945312 16.816406 -8.835938 17.265625 -8.703125 C 17.265625 -8.554688 17.320312 -8.457031 17.4375 -8.40625 C 17.550781 -8.351562 17.609375 -8.253906 17.609375 -8.109375 C 17.296875 -7.160156 16.773438 -6.269531 16.046875 -5.4375 C 15.328125 -4.601562 14.5 -3.847656 13.5625 -3.171875 C 12.632812 -2.503906 11.660156 -1.929688 10.640625 -1.453125 C 9.617188 -0.984375 8.675781 -0.640625 7.8125 -0.421875 C 6.757812 -0.109375 5.726562 0.00390625 4.71875 -0.078125 C 3.71875 -0.160156 2.769531 -0.566406 1.875 -1.296875 C 0.988281 -2.046875 0.488281 -2.898438 0.375 -3.859375 C 0.257812 -4.828125 0.359375 -5.753906 0.671875 -6.640625 C 1.285156 -7.816406 2.015625 -8.925781 2.859375 -9.96875 C 3.710938 -11.019531 4.671875 -11.988281 5.734375 -12.875 C 6.085938 -13.15625 6.488281 -13.484375 6.9375 -13.859375 C 7.382812 -14.234375 7.84375 -14.585938 8.3125 -14.921875 C 8.789062 -15.253906 9.28125 -15.539062 9.78125 -15.78125 C 10.28125 -16.019531 10.796875 -16.140625 11.328125 -16.140625 C 11.640625 -16.140625 11.984375 -16.117188 12.359375 -16.078125 C 12.734375 -16.035156 13.097656 -15.957031 13.453125 -15.84375 C 13.816406 -15.726562 14.128906 -15.570312 14.390625 -15.375 C 14.660156 -15.1875 14.835938 -14.941406 14.921875 -14.640625 C 15.003906 -14.273438 14.960938 -13.910156 14.796875 -13.546875 C 14.628906 -13.179688 14.421875 -12.832031 14.171875 -12.5 C 13.921875 -12.164062 13.640625 -11.851562 13.328125 -11.5625 C 13.023438 -11.269531 12.765625 -11.007812 12.546875 -10.78125 C 11.796875 -10.03125 10.988281 -9.363281 10.125 -8.78125 C 9.257812 -8.195312 8.394531 -7.695312 7.53125 -7.28125 C 7.132812 -7.113281 6.753906 -6.941406 6.390625 -6.765625 C 6.035156 -6.597656 5.664062 -6.457031 5.28125 -6.34375 C 4.90625 -6.238281 4.53125 -6.175781 4.15625 -6.15625 C 3.78125 -6.144531 3.410156 -6.210938 3.046875 -6.359375 Z M 3.046875 -6.359375 "/></g></g></g><g fill="#777370" fill-opacity="1"><g transform="translate(285.938771, 65.938474)"><g><path d="M 6.78125 -15.96875 C 6.863281 -16.050781 6.992188 -16.09375 7.171875 -16.09375 C 7.347656 -16.09375 7.523438 -16.070312 7.703125 -16.03125 C 7.890625 -15.988281 8.046875 -15.941406 8.171875 -15.890625 C 8.296875 -15.835938 8.316406 -15.765625 8.234375 -15.671875 C 7.515625 -12.921875 6.539062 -10.273438 5.3125 -7.734375 C 4.082031 -5.203125 2.828125 -2.707031 1.546875 -0.25 C 1.460938 -0.164062 1.34375 -0.125 1.1875 -0.125 C 1.039062 -0.125 0.878906 -0.144531 0.703125 -0.1875 C 0.535156 -0.226562 0.390625 -0.273438 0.265625 -0.328125 C 0.140625 -0.390625 0.078125 -0.460938 0.078125 -0.546875 C 0.753906 -2.078125 1.476562 -3.644531 2.25 -5.25 C 3.03125 -6.851562 3.929688 -8.367188 4.953125 -9.796875 C 5.972656 -11.234375 7.132812 -12.523438 8.4375 -13.671875 C 9.75 -14.816406 11.242188 -15.679688 12.921875 -16.265625 C 13.054688 -16.347656 13.210938 -16.375 13.390625 -16.34375 C 13.578125 -16.320312 13.742188 -16.273438 13.890625 -16.203125 C 14.046875 -16.128906 14.144531 -16.046875 14.1875 -15.953125 C 14.238281 -15.859375 14.191406 -15.765625 14.046875 -15.671875 C 12.378906 -15.085938 10.910156 -14.238281 9.640625 -13.125 C 8.367188 -12.007812 7.238281 -10.753906 6.25 -9.359375 C 5.257812 -7.972656 4.390625 -6.488281 3.640625 -4.90625 C 2.890625 -3.332031 2.191406 -1.78125 1.546875 -0.25 C 1.242188 -0.25 1 -0.296875 0.8125 -0.390625 C 0.632812 -0.492188 0.390625 -0.546875 0.078125 -0.546875 C 1.390625 -3.023438 2.648438 -5.523438 3.859375 -8.046875 C 5.078125 -10.566406 6.050781 -13.207031 6.78125 -15.96875 Z M 6.78125 -15.96875 "/></g></g></g><g fill="#777370" fill-opacity="1"><g transform="translate(297.810662, 65.938474)"><g><path d="M 10 -15.640625 C 10 -15.722656 10.066406 -15.804688 10.203125 -15.890625 C 10.335938 -15.972656 10.488281 -16.039062 10.65625 -16.09375 C 10.820312 -16.15625 10.960938 -16.175781 11.078125 -16.15625 C 11.191406 -16.144531 11.21875 -16.070312 11.15625 -15.9375 C 11.019531 -15.238281 10.769531 -14.601562 10.40625 -14.03125 C 10.050781 -13.457031 9.734375 -12.878906 9.453125 -12.296875 C 8.890625 -11.597656 8.320312 -10.847656 7.75 -10.046875 C 7.1875 -9.253906 6.625 -8.507812 6.0625 -7.8125 C 5.5 -6.945312 4.945312 -6.160156 4.40625 -5.453125 C 3.863281 -4.742188 3.382812 -4.023438 2.96875 -3.296875 C 2.914062 -3.210938 2.8125 -3.0625 2.65625 -2.84375 C 2.5 -2.625 2.347656 -2.382812 2.203125 -2.125 C 2.066406 -1.875 1.957031 -1.644531 1.875 -1.4375 C 1.789062 -1.226562 1.789062 -1.082031 1.875 -1 C 1.9375 -0.863281 1.925781 -0.734375 1.84375 -0.609375 C 1.757812 -0.484375 1.644531 -0.378906 1.5 -0.296875 C 1.363281 -0.210938 1.21875 -0.15625 1.0625 -0.125 C 0.914062 -0.09375 0.796875 -0.117188 0.703125 -0.203125 C 0.566406 -0.347656 0.503906 -0.53125 0.515625 -0.75 C 0.535156 -0.976562 0.585938 -1.203125 0.671875 -1.421875 C 0.753906 -1.640625 0.859375 -1.847656 0.984375 -2.046875 C 1.109375 -2.242188 1.195312 -2.382812 1.25 -2.46875 C 1.695312 -3.269531 2.1875 -4.039062 2.71875 -4.78125 C 3.25 -5.519531 3.789062 -6.238281 4.34375 -6.9375 C 4.925781 -7.800781 5.507812 -8.65625 6.09375 -9.5 C 6.6875 -10.351562 7.34375 -11.1875 8.0625 -12 C 8.34375 -12.582031 8.664062 -13.160156 9.03125 -13.734375 C 9.394531 -14.304688 9.71875 -14.941406 10 -15.640625 Z M 14.796875 -22.15625 C 14.796875 -22.019531 14.691406 -21.941406 14.484375 -21.921875 C 14.273438 -21.910156 14.101562 -21.90625 13.96875 -21.90625 C 13.851562 -21.90625 13.753906 -21.921875 13.671875 -21.953125 C 13.503906 -22.003906 13.421875 -22.070312 13.421875 -22.15625 L 13.421875 -23 C 13.421875 -23.113281 13.503906 -23.195312 13.671875 -23.25 C 13.753906 -23.28125 13.851562 -23.296875 13.96875 -23.296875 C 14.132812 -23.296875 14.273438 -23.28125 14.390625 -23.25 C 14.660156 -23.195312 14.796875 -23.113281 14.796875 -23 Z M 14.796875 -22.15625 "/></g></g></g><g fill="#777370" fill-opacity="1"><g transform="translate(307.258026, 65.938474)"><g><path d="M 1.96875 -5.765625 C 1.882812 -5.628906 1.738281 -5.566406 1.53125 -5.578125 C 1.320312 -5.597656 1.117188 -5.671875 0.921875 -5.796875 C 0.722656 -5.921875 0.582031 -6.066406 0.5 -6.234375 C 0.414062 -6.398438 0.457031 -6.566406 0.625 -6.734375 C 1.457031 -7.734375 2.300781 -8.726562 3.15625 -9.71875 C 4.007812 -10.707031 4.921875 -11.707031 5.890625 -12.71875 C 6.535156 -13.519531 7.191406 -14.257812 7.859375 -14.9375 C 8.523438 -15.625 9.179688 -16.300781 9.828125 -16.96875 C 10.328125 -17.445312 10.832031 -17.851562 11.34375 -18.1875 C 11.863281 -18.519531 12.457031 -18.769531 13.125 -18.9375 C 13.289062 -19.101562 13.492188 -19.070312 13.734375 -18.84375 C 13.972656 -18.625 14.09375 -18.421875 14.09375 -18.234375 C 14.175781 -16.503906 13.953125 -14.867188 13.421875 -13.328125 C 12.890625 -11.796875 12.226562 -10.304688 11.4375 -8.859375 C 10.644531 -7.410156 9.796875 -5.972656 8.890625 -4.546875 C 7.984375 -3.128906 7.207031 -1.679688 6.5625 -0.203125 C 6.476562 -0.0351562 6.320312 0.0507812 6.09375 0.0625 C 5.875 0.0703125 5.660156 0.0351562 5.453125 -0.046875 C 5.242188 -0.128906 5.078125 -0.242188 4.953125 -0.390625 C 4.828125 -0.546875 4.804688 -0.707031 4.890625 -0.875 C 5.722656 -2.519531 6.675781 -4.070312 7.75 -5.53125 C 8.820312 -7 9.945312 -8.40625 11.125 -9.75 C 12.125 -11.082031 13.207031 -12.289062 14.375 -13.375 C 15.550781 -14.46875 16.890625 -15.332031 18.390625 -15.96875 C 18.703125 -15.96875 18.953125 -15.894531 19.140625 -15.75 C 19.335938 -15.613281 19.519531 -15.460938 19.6875 -15.296875 C 20 -14.460938 20.09375 -13.640625 19.96875 -12.828125 C 19.84375 -12.023438 19.53125 -11.207031 19.03125 -10.375 C 18.863281 -9.957031 18.640625 -9.507812 18.359375 -9.03125 C 18.078125 -8.5625 17.796875 -8.082031 17.515625 -7.59375 C 17.234375 -7.101562 17.015625 -6.617188 16.859375 -6.140625 C 16.710938 -5.671875 16.679688 -5.226562 16.765625 -4.8125 C 16.878906 -4 17.164062 -3.453125 17.625 -3.171875 C 18.082031 -2.898438 18.640625 -2.8125 19.296875 -2.90625 C 19.953125 -3 20.671875 -3.226562 21.453125 -3.59375 C 22.234375 -3.957031 22.976562 -4.363281 23.6875 -4.8125 C 24.394531 -5.257812 25.035156 -5.691406 25.609375 -6.109375 C 26.179688 -6.523438 26.609375 -6.84375 26.890625 -7.0625 C 27.054688 -7.144531 27.25 -7.160156 27.46875 -7.109375 C 27.695312 -7.054688 27.894531 -6.957031 28.0625 -6.8125 C 28.226562 -6.675781 28.335938 -6.507812 28.390625 -6.3125 C 28.441406 -6.113281 28.382812 -5.929688 28.21875 -5.765625 C 27.46875 -5.210938 26.582031 -4.59375 25.5625 -3.90625 C 24.550781 -3.226562 23.5 -2.664062 22.40625 -2.21875 C 21.320312 -1.769531 20.253906 -1.550781 19.203125 -1.5625 C 18.160156 -1.582031 17.222656 -1.992188 16.390625 -2.796875 C 15.660156 -3.441406 15.253906 -4.101562 15.171875 -4.78125 C 15.085938 -5.46875 15.171875 -6.148438 15.421875 -6.828125 C 15.679688 -7.515625 16.039062 -8.210938 16.5 -8.921875 C 16.957031 -9.640625 17.378906 -10.34375 17.765625 -11.03125 C 18.160156 -11.726562 18.441406 -12.429688 18.609375 -13.140625 C 18.773438 -13.859375 18.703125 -14.578125 18.390625 -15.296875 C 18.535156 -15.128906 18.691406 -14.984375 18.859375 -14.859375 C 19.023438 -14.734375 19.191406 -14.671875 19.359375 -14.671875 C 18.523438 -14.335938 17.738281 -13.90625 17 -13.375 C 16.257812 -12.84375 15.5625 -12.269531 14.90625 -11.65625 C 14.25 -11.050781 13.632812 -10.410156 13.0625 -9.734375 C 12.488281 -9.066406 11.953125 -8.414062 11.453125 -7.78125 C 10.484375 -6.601562 9.585938 -5.375 8.765625 -4.09375 C 7.941406 -2.8125 7.207031 -1.515625 6.5625 -0.203125 C 6.226562 -0.347656 5.957031 -0.445312 5.75 -0.5 C 5.539062 -0.550781 5.253906 -0.675781 4.890625 -0.875 C 5.640625 -2.320312 6.46875 -3.753906 7.375 -5.171875 C 8.28125 -6.597656 9.132812 -8.03125 9.9375 -9.46875 C 10.75 -10.90625 11.425781 -12.375 11.96875 -13.875 C 12.519531 -15.382812 12.796875 -16.960938 12.796875 -18.609375 C 12.960938 -18.410156 13.128906 -18.25 13.296875 -18.125 C 13.460938 -18 13.613281 -17.9375 13.75 -17.9375 C 13.28125 -17.769531 12.738281 -17.421875 12.125 -16.890625 C 11.507812 -16.359375 10.96875 -15.828125 10.5 -15.296875 C 9.820312 -14.628906 9.15625 -13.972656 8.5 -13.328125 C 7.851562 -12.691406 7.207031 -12.039062 6.5625 -11.375 C 5.726562 -10.375 4.953125 -9.441406 4.234375 -8.578125 C 3.523438 -7.710938 2.769531 -6.773438 1.96875 -5.765625 Z M 1.96875 -5.765625 "/></g></g></g><g fill="#777370" fill-opacity="1"><g transform="translate(330.834603, 65.938474)"><g><path d="M 14.546875 -15.890625 C 14.828125 -15.890625 15 -15.835938 15.0625 -15.734375 C 15.132812 -15.640625 15.128906 -15.535156 15.046875 -15.421875 C 14.960938 -15.316406 14.84375 -15.210938 14.6875 -15.109375 C 14.539062 -15.015625 14.398438 -14.96875 14.265625 -14.96875 C 13.953125 -15.050781 13.628906 -15.050781 13.296875 -14.96875 C 12.960938 -14.882812 12.617188 -14.75 12.265625 -14.5625 C 11.921875 -14.382812 11.59375 -14.175781 11.28125 -13.9375 C 10.976562 -13.707031 10.71875 -13.476562 10.5 -13.25 C 9.46875 -12.695312 8.519531 -12.007812 7.65625 -11.1875 C 6.789062 -10.363281 5.992188 -9.503906 5.265625 -8.609375 C 4.546875 -7.890625 3.859375 -7.144531 3.203125 -6.375 C 2.546875 -5.601562 2.0625 -4.703125 1.75 -3.671875 C 1.476562 -2.640625 1.597656 -1.859375 2.109375 -1.328125 C 2.628906 -0.804688 3.390625 -0.628906 4.390625 -0.796875 C 5.117188 -0.929688 5.828125 -1.1875 6.515625 -1.5625 C 7.210938 -1.9375 7.875 -2.367188 8.5 -2.859375 C 9.132812 -3.347656 9.742188 -3.863281 10.328125 -4.40625 C 10.910156 -4.945312 11.453125 -5.472656 11.953125 -5.984375 C 12.679688 -7.035156 13.441406 -8.070312 14.234375 -9.09375 C 15.023438 -10.113281 15.703125 -11.207031 16.265625 -12.375 C 16.265625 -12.457031 16.289062 -12.578125 16.34375 -12.734375 C 16.40625 -12.890625 16.457031 -13.050781 16.5 -13.21875 C 16.539062 -13.382812 16.550781 -13.53125 16.53125 -13.65625 C 16.519531 -13.78125 16.429688 -13.84375 16.265625 -13.84375 C 16.128906 -13.976562 15.882812 -14.003906 15.53125 -13.921875 C 15.1875 -13.835938 14.859375 -13.726562 14.546875 -13.59375 C 12.796875 -12.976562 11.128906 -12.203125 9.546875 -11.265625 C 7.972656 -10.335938 6.445312 -9.359375 4.96875 -8.328125 C 4.832031 -8.265625 4.664062 -8.234375 4.46875 -8.234375 C 4.28125 -8.234375 4.113281 -8.257812 3.96875 -8.3125 C 3.832031 -8.375 3.734375 -8.453125 3.671875 -8.546875 C 3.617188 -8.648438 3.664062 -8.785156 3.8125 -8.953125 C 4.976562 -9.671875 6.203125 -10.382812 7.484375 -11.09375 C 8.765625 -11.8125 10.0625 -12.53125 11.375 -13.25 C 11.65625 -13.394531 12.070312 -13.601562 12.625 -13.875 C 13.1875 -14.15625 13.785156 -14.398438 14.421875 -14.609375 C 15.066406 -14.816406 15.6875 -14.925781 16.28125 -14.9375 C 16.882812 -14.957031 17.378906 -14.785156 17.765625 -14.421875 C 17.960938 -14.054688 18.039062 -13.664062 18 -13.25 C 17.957031 -12.832031 17.851562 -12.421875 17.6875 -12.015625 C 17.519531 -11.617188 17.332031 -11.242188 17.125 -10.890625 C 16.914062 -10.546875 16.738281 -10.273438 16.59375 -10.078125 C 15.875 -8.910156 15.085938 -7.863281 14.234375 -6.9375 C 13.390625 -6.019531 12.519531 -5.128906 11.625 -4.265625 C 11.125 -3.847656 10.597656 -3.410156 10.046875 -2.953125 C 9.503906 -2.492188 8.945312 -2.070312 8.375 -1.6875 C 7.8125 -1.3125 7.222656 -0.988281 6.609375 -0.71875 C 5.992188 -0.457031 5.363281 -0.300781 4.71875 -0.25 C 4.363281 -0.164062 3.960938 -0.109375 3.515625 -0.078125 C 3.066406 -0.0546875 2.625 -0.078125 2.1875 -0.140625 C 1.757812 -0.210938 1.378906 -0.347656 1.046875 -0.546875 C 0.710938 -0.742188 0.460938 -1.019531 0.296875 -1.375 C 0.015625 -2.101562 -0.0195312 -2.816406 0.1875 -3.515625 C 0.394531 -4.210938 0.738281 -4.851562 1.21875 -5.4375 C 1.800781 -6.46875 2.441406 -7.414062 3.140625 -8.28125 C 3.835938 -9.144531 4.546875 -9.9375 5.265625 -10.65625 C 6.128906 -11.382812 7 -12.101562 7.875 -12.8125 C 8.757812 -13.519531 9.632812 -14.15625 10.5 -14.71875 C 11.050781 -15.019531 11.679688 -15.320312 12.390625 -15.625 C 13.109375 -15.9375 13.828125 -16.023438 14.546875 -15.890625 Z M 21.484375 -16.4375 C 21.566406 -16.4375 21.65625 -16.378906 21.75 -16.265625 C 21.851562 -16.148438 21.929688 -16.035156 21.984375 -15.921875 C 22.046875 -15.816406 22.066406 -15.75 22.046875 -15.71875 C 22.035156 -15.6875 21.945312 -15.742188 21.78125 -15.890625 C 21.925781 -15.742188 22 -15.644531 22 -15.59375 C 22 -15.539062 21.925781 -15.441406 21.78125 -15.296875 C 21.644531 -15.296875 21.519531 -15.234375 21.40625 -15.109375 C 21.289062 -14.984375 21.234375 -14.851562 21.234375 -14.71875 C 20.929688 -14.414062 20.640625 -14.125 20.359375 -13.84375 C 20.078125 -13.5625 19.769531 -13.269531 19.4375 -12.96875 C 18.601562 -12.101562 17.800781 -11.222656 17.03125 -10.328125 C 16.269531 -9.429688 15.523438 -8.484375 14.796875 -7.484375 C 14.578125 -7.097656 14.332031 -6.707031 14.0625 -6.3125 C 13.800781 -5.925781 13.546875 -5.519531 13.296875 -5.09375 C 13.046875 -4.675781 12.820312 -4.25 12.625 -3.8125 C 12.425781 -3.382812 12.285156 -2.960938 12.203125 -2.546875 L 12.203125 -2.265625 C 12.097656 -2.285156 12.015625 -2.328125 11.953125 -2.390625 C 11.785156 -2.492188 11.785156 -2.546875 11.953125 -2.546875 L 13.09375 -2.546875 C 13.675781 -2.691406 14.257812 -2.894531 14.84375 -3.15625 C 15.425781 -3.414062 16.007812 -3.6875 16.59375 -3.96875 C 16.675781 -4.050781 16.78125 -4.046875 16.90625 -3.953125 C 17.03125 -3.859375 17.140625 -3.738281 17.234375 -3.59375 C 17.335938 -3.457031 17.414062 -3.3125 17.46875 -3.15625 C 17.53125 -3 17.519531 -2.878906 17.4375 -2.796875 C 17.070312 -2.578125 16.617188 -2.332031 16.078125 -2.0625 C 15.535156 -1.800781 14.984375 -1.597656 14.421875 -1.453125 C 13.867188 -1.316406 13.332031 -1.289062 12.8125 -1.375 C 12.300781 -1.457031 11.90625 -1.753906 11.625 -2.265625 C 11.40625 -2.679688 11.316406 -3.117188 11.359375 -3.578125 C 11.398438 -4.035156 11.507812 -4.476562 11.6875 -4.90625 C 11.863281 -5.34375 12.082031 -5.75 12.34375 -6.125 C 12.613281 -6.5 12.863281 -6.84375 13.09375 -7.15625 C 13.226562 -7.34375 13.503906 -7.726562 13.921875 -8.3125 C 14.335938 -8.90625 14.820312 -9.578125 15.375 -10.328125 C 15.9375 -11.078125 16.535156 -11.851562 17.171875 -12.65625 C 17.816406 -13.46875 18.425781 -14.179688 19 -14.796875 C 19.570312 -15.410156 20.082031 -15.882812 20.53125 -16.21875 C 20.976562 -16.550781 21.296875 -16.625 21.484375 -16.4375 Z M 21.484375 -16.4375 "/></g></g></g><g fill="#777370" fill-opacity="1"><g transform="translate(349.997002, 65.938474)"><g/></g></g><g fill="#777370" fill-opacity="1"><g transform="translate(220.476132, 98.573157)"><g><path d="M 1.96875 -5.765625 C 1.882812 -5.628906 1.738281 -5.566406 1.53125 -5.578125 C 1.320312 -5.597656 1.117188 -5.671875 0.921875 -5.796875 C 0.722656 -5.921875 0.582031 -6.066406 0.5 -6.234375 C 0.414062 -6.398438 0.457031 -6.566406 0.625 -6.734375 C 1.457031 -7.734375 2.300781 -8.726562 3.15625 -9.71875 C 4.007812 -10.707031 4.921875 -11.707031 5.890625 -12.71875 C 6.535156 -13.519531 7.191406 -14.257812 7.859375 -14.9375 C 8.523438 -15.625 9.179688 -16.300781 9.828125 -16.96875 C 10.328125 -17.445312 10.832031 -17.851562 11.34375 -18.1875 C 11.863281 -18.519531 12.457031 -18.769531 13.125 -18.9375 C 13.289062 -19.101562 13.492188 -19.070312 13.734375 -18.84375 C 13.972656 -18.625 14.09375 -18.421875 14.09375 -18.234375 C 14.175781 -16.503906 13.953125 -14.867188 13.421875 -13.328125 C 12.890625 -11.796875 12.226562 -10.304688 11.4375 -8.859375 C 10.644531 -7.410156 9.796875 -5.972656 8.890625 -4.546875 C 7.984375 -3.128906 7.207031 -1.679688 6.5625 -0.203125 C 6.476562 -0.0351562 6.320312 0.0507812 6.09375 0.0625 C 5.875 0.0703125 5.660156 0.0351562 5.453125 -0.046875 C 5.242188 -0.128906 5.078125 -0.242188 4.953125 -0.390625 C 4.828125 -0.546875 4.804688 -0.707031 4.890625 -0.875 C 5.722656 -2.519531 6.675781 -4.070312 7.75 -5.53125 C 8.820312 -7 9.945312 -8.40625 11.125 -9.75 C 12.125 -11.082031 13.207031 -12.289062 14.375 -13.375 C 15.550781 -14.46875 16.890625 -15.332031 18.390625 -15.96875 C 18.703125 -15.96875 18.953125 -15.894531 19.140625 -15.75 C 19.335938 -15.613281 19.519531 -15.460938 19.6875 -15.296875 C 20 -14.460938 20.09375 -13.640625 19.96875 -12.828125 C 19.84375 -12.023438 19.53125 -11.207031 19.03125 -10.375 C 18.863281 -9.957031 18.640625 -9.507812 18.359375 -9.03125 C 18.078125 -8.5625 17.796875 -8.082031 17.515625 -7.59375 C 17.234375 -7.101562 17.015625 -6.617188 16.859375 -6.140625 C 16.710938 -5.671875 16.679688 -5.226562 16.765625 -4.8125 C 16.878906 -4 17.164062 -3.453125 17.625 -3.171875 C 18.082031 -2.898438 18.640625 -2.8125 19.296875 -2.90625 C 19.953125 -3 20.671875 -3.226562 21.453125 -3.59375 C 22.234375 -3.957031 22.976562 -4.363281 23.6875 -4.8125 C 24.394531 -5.257812 25.035156 -5.691406 25.609375 -6.109375 C 26.179688 -6.523438 26.609375 -6.84375 26.890625 -7.0625 C 27.054688 -7.144531 27.25 -7.160156 27.46875 -7.109375 C 27.695312 -7.054688 27.894531 -6.957031 28.0625 -6.8125 C 28.226562 -6.675781 28.335938 -6.507812 28.390625 -6.3125 C 28.441406 -6.113281 28.382812 -5.929688 28.21875 -5.765625 C 27.46875 -5.210938 26.582031 -4.59375 25.5625 -3.90625 C 24.550781 -3.226562 23.5 -2.664062 22.40625 -2.21875 C 21.320312 -1.769531 20.253906 -1.550781 19.203125 -1.5625 C 18.160156 -1.582031 17.222656 -1.992188 16.390625 -2.796875 C 15.660156 -3.441406 15.253906 -4.101562 15.171875 -4.78125 C 15.085938 -5.46875 15.171875 -6.148438 15.421875 -6.828125 C 15.679688 -7.515625 16.039062 -8.210938 16.5 -8.921875 C 16.957031 -9.640625 17.378906 -10.34375 17.765625 -11.03125 C 18.160156 -11.726562 18.441406 -12.429688 18.609375 -13.140625 C 18.773438 -13.859375 18.703125 -14.578125 18.390625 -15.296875 C 18.535156 -15.128906 18.691406 -14.984375 18.859375 -14.859375 C 19.023438 -14.734375 19.191406 -14.671875 19.359375 -14.671875 C 18.523438 -14.335938 17.738281 -13.90625 17 -13.375 C 16.257812 -12.84375 15.5625 -12.269531 14.90625 -11.65625 C 14.25 -11.050781 13.632812 -10.410156 13.0625 -9.734375 C 12.488281 -9.066406 11.953125 -8.414062 11.453125 -7.78125 C 10.484375 -6.601562 9.585938 -5.375 8.765625 -4.09375 C 7.941406 -2.8125 7.207031 -1.515625 6.5625 -0.203125 C 6.226562 -0.347656 5.957031 -0.445312 5.75 -0.5 C 5.539062 -0.550781 5.253906 -0.675781 4.890625 -0.875 C 5.640625 -2.320312 6.46875 -3.753906 7.375 -5.171875 C 8.28125 -6.597656 9.132812 -8.03125 9.9375 -9.46875 C 10.75 -10.90625 11.425781 -12.375 11.96875 -13.875 C 12.519531 -15.382812 12.796875 -16.960938 12.796875 -18.609375 C 12.960938 -18.410156 13.128906 -18.25 13.296875 -18.125 C 13.460938 -18 13.613281 -17.9375 13.75 -17.9375 C 13.28125 -17.769531 12.738281 -17.421875 12.125 -16.890625 C 11.507812 -16.359375 10.96875 -15.828125 10.5 -15.296875 C 9.820312 -14.628906 9.15625 -13.972656 8.5 -13.328125 C 7.851562 -12.691406 7.207031 -12.039062 6.5625 -11.375 C 5.726562 -10.375 4.953125 -9.441406 4.234375 -8.578125 C 3.523438 -7.710938 2.769531 -6.773438 1.96875 -5.765625 Z M 1.96875 -5.765625 "/></g></g></g><g fill="#777370" fill-opacity="1"><g transform="translate(244.052709, 98.573157)"><g><path d="M 10 -15.640625 C 10 -15.722656 10.066406 -15.804688 10.203125 -15.890625 C 10.335938 -15.972656 10.488281 -16.039062 10.65625 -16.09375 C 10.820312 -16.15625 10.960938 -16.175781 11.078125 -16.15625 C 11.191406 -16.144531 11.21875 -16.070312 11.15625 -15.9375 C 11.019531 -15.238281 10.769531 -14.601562 10.40625 -14.03125 C 10.050781 -13.457031 9.734375 -12.878906 9.453125 -12.296875 C 8.890625 -11.597656 8.320312 -10.847656 7.75 -10.046875 C 7.1875 -9.253906 6.625 -8.507812 6.0625 -7.8125 C 5.5 -6.945312 4.945312 -6.160156 4.40625 -5.453125 C 3.863281 -4.742188 3.382812 -4.023438 2.96875 -3.296875 C 2.914062 -3.210938 2.8125 -3.0625 2.65625 -2.84375 C 2.5 -2.625 2.347656 -2.382812 2.203125 -2.125 C 2.066406 -1.875 1.957031 -1.644531 1.875 -1.4375 C 1.789062 -1.226562 1.789062 -1.082031 1.875 -1 C 1.9375 -0.863281 1.925781 -0.734375 1.84375 -0.609375 C 1.757812 -0.484375 1.644531 -0.378906 1.5 -0.296875 C 1.363281 -0.210938 1.21875 -0.15625 1.0625 -0.125 C 0.914062 -0.09375 0.796875 -0.117188 0.703125 -0.203125 C 0.566406 -0.347656 0.503906 -0.53125 0.515625 -0.75 C 0.535156 -0.976562 0.585938 -1.203125 0.671875 -1.421875 C 0.753906 -1.640625 0.859375 -1.847656 0.984375 -2.046875 C 1.109375 -2.242188 1.195312 -2.382812 1.25 -2.46875 C 1.695312 -3.269531 2.1875 -4.039062 2.71875 -4.78125 C 3.25 -5.519531 3.789062 -6.238281 4.34375 -6.9375 C 4.925781 -7.800781 5.507812 -8.65625 6.09375 -9.5 C 6.6875 -10.351562 7.34375 -11.1875 8.0625 -12 C 8.34375 -12.582031 8.664062 -13.160156 9.03125 -13.734375 C 9.394531 -14.304688 9.71875 -14.941406 10 -15.640625 Z M 14.796875 -22.15625 C 14.796875 -22.019531 14.691406 -21.941406 14.484375 -21.921875 C 14.273438 -21.910156 14.101562 -21.90625 13.96875 -21.90625 C 13.851562 -21.90625 13.753906 -21.921875 13.671875 -21.953125 C 13.503906 -22.003906 13.421875 -22.070312 13.421875 -22.15625 L 13.421875 -23 C 13.421875 -23.113281 13.503906 -23.195312 13.671875 -23.25 C 13.753906 -23.28125 13.851562 -23.296875 13.96875 -23.296875 C 14.132812 -23.296875 14.273438 -23.28125 14.390625 -23.25 C 14.660156 -23.195312 14.796875 -23.113281 14.796875 -23 Z M 14.796875 -22.15625 "/></g></g></g><g fill="#777370" fill-opacity="1"><g transform="translate(253.500073, 98.573157)"><g><path d="M 3.046875 -6.359375 C 2.910156 -6.441406 2.789062 -6.546875 2.6875 -6.671875 C 2.59375 -6.796875 2.53125 -6.910156 2.5 -7.015625 C 2.476562 -7.128906 2.507812 -7.222656 2.59375 -7.296875 C 2.675781 -7.367188 2.828125 -7.363281 3.046875 -7.28125 C 3.410156 -7.113281 3.828125 -7.070312 4.296875 -7.15625 C 4.773438 -7.238281 5.238281 -7.375 5.6875 -7.5625 C 6.132812 -7.757812 6.546875 -7.988281 6.921875 -8.25 C 7.296875 -8.519531 7.59375 -8.765625 7.8125 -8.984375 C 8.707031 -9.460938 9.566406 -10.039062 10.390625 -10.71875 C 11.210938 -11.40625 11.929688 -12.125 12.546875 -12.875 C 12.679688 -13.1875 12.859375 -13.476562 13.078125 -13.75 C 13.304688 -14.03125 13.421875 -14.328125 13.421875 -14.640625 C 13.421875 -14.941406 13.335938 -15.117188 13.171875 -15.171875 C 13.003906 -15.234375 12.695312 -15.265625 12.25 -15.265625 C 11.71875 -15.179688 11.207031 -15.019531 10.71875 -14.78125 C 10.238281 -14.539062 9.765625 -14.257812 9.296875 -13.9375 C 8.835938 -13.625 8.382812 -13.289062 7.9375 -12.9375 C 7.5 -12.59375 7.054688 -12.265625 6.609375 -11.953125 C 5.710938 -11.066406 4.859375 -10.109375 4.046875 -9.078125 C 3.242188 -8.046875 2.617188 -6.941406 2.171875 -5.765625 C 1.953125 -5.234375 1.828125 -4.6875 1.796875 -4.125 C 1.765625 -3.570312 1.851562 -3.066406 2.0625 -2.609375 C 2.28125 -2.148438 2.609375 -1.765625 3.046875 -1.453125 C 3.492188 -1.148438 4.09375 -1 4.84375 -1 C 6.039062 -1 7.257812 -1.265625 8.5 -1.796875 C 9.75 -2.328125 10.890625 -2.953125 11.921875 -3.671875 C 12.804688 -4.429688 13.644531 -5.203125 14.4375 -5.984375 C 15.238281 -6.765625 15.789062 -7.671875 16.09375 -8.703125 C 16.238281 -8.703125 16.320312 -8.640625 16.34375 -8.515625 C 16.375 -8.390625 16.390625 -8.253906 16.390625 -8.109375 C 16.390625 -8.253906 16.375 -8.335938 16.34375 -8.359375 C 16.320312 -8.390625 16.238281 -8.40625 16.09375 -8.40625 C 16.238281 -8.40625 16.382812 -8.351562 16.53125 -8.25 C 16.6875 -8.15625 16.832031 -8.109375 16.96875 -8.109375 C 16.945312 -8.054688 16.894531 -8.015625 16.8125 -7.984375 C 16.664062 -7.898438 16.523438 -7.859375 16.390625 -7.859375 C 16.304688 -7.773438 16.1875 -7.757812 16.03125 -7.8125 C 15.882812 -7.875 15.734375 -7.953125 15.578125 -8.046875 C 15.421875 -8.140625 15.300781 -8.25 15.21875 -8.375 C 15.132812 -8.507812 15.132812 -8.617188 15.21875 -8.703125 C 15.664062 -9.003906 16.003906 -9.113281 16.234375 -9.03125 C 16.472656 -8.945312 16.816406 -8.835938 17.265625 -8.703125 C 17.265625 -8.554688 17.320312 -8.457031 17.4375 -8.40625 C 17.550781 -8.351562 17.609375 -8.253906 17.609375 -8.109375 C 17.296875 -7.160156 16.773438 -6.269531 16.046875 -5.4375 C 15.328125 -4.601562 14.5 -3.847656 13.5625 -3.171875 C 12.632812 -2.503906 11.660156 -1.929688 10.640625 -1.453125 C 9.617188 -0.984375 8.675781 -0.640625 7.8125 -0.421875 C 6.757812 -0.109375 5.726562 0.00390625 4.71875 -0.078125 C 3.71875 -0.160156 2.769531 -0.566406 1.875 -1.296875 C 0.988281 -2.046875 0.488281 -2.898438 0.375 -3.859375 C 0.257812 -4.828125 0.359375 -5.753906 0.671875 -6.640625 C 1.285156 -7.816406 2.015625 -8.925781 2.859375 -9.96875 C 3.710938 -11.019531 4.671875 -11.988281 5.734375 -12.875 C 6.085938 -13.15625 6.488281 -13.484375 6.9375 -13.859375 C 7.382812 -14.234375 7.84375 -14.585938 8.3125 -14.921875 C 8.789062 -15.253906 9.28125 -15.539062 9.78125 -15.78125 C 10.28125 -16.019531 10.796875 -16.140625 11.328125 -16.140625 C 11.640625 -16.140625 11.984375 -16.117188 12.359375 -16.078125 C 12.734375 -16.035156 13.097656 -15.957031 13.453125 -15.84375 C 13.816406 -15.726562 14.128906 -15.570312 14.390625 -15.375 C 14.660156 -15.1875 14.835938 -14.941406 14.921875 -14.640625 C 15.003906 -14.273438 14.960938 -13.910156 14.796875 -13.546875 C 14.628906 -13.179688 14.421875 -12.832031 14.171875 -12.5 C 13.921875 -12.164062 13.640625 -11.851562 13.328125 -11.5625 C 13.023438 -11.269531 12.765625 -11.007812 12.546875 -10.78125 C 11.796875 -10.03125 10.988281 -9.363281 10.125 -8.78125 C 9.257812 -8.195312 8.394531 -7.695312 7.53125 -7.28125 C 7.132812 -7.113281 6.753906 -6.941406 6.390625 -6.765625 C 6.035156 -6.597656 5.664062 -6.457031 5.28125 -6.34375 C 4.90625 -6.238281 4.53125 -6.175781 4.15625 -6.15625 C 3.78125 -6.144531 3.410156 -6.210938 3.046875 -6.359375 Z M 3.046875 -6.359375 "/></g></g></g><g fill="#777370" fill-opacity="1"><g transform="translate(271.725935, 98.573157)"><g><path d="M 10.78125 -28.46875 C 10.78125 -28.695312 10.84375 -28.8125 10.96875 -28.8125 C 11.09375 -28.8125 11.222656 -28.753906 11.359375 -28.640625 C 11.503906 -28.523438 11.625 -28.382812 11.71875 -28.21875 C 11.820312 -28.050781 11.832031 -27.925781 11.75 -27.84375 C 11.351562 -25.414062 10.8125 -23.023438 10.125 -20.671875 C 9.445312 -18.316406 8.675781 -15.992188 7.8125 -13.703125 C 6.945312 -11.421875 6.019531 -9.164062 5.03125 -6.9375 C 4.039062 -4.707031 3.03125 -2.503906 2 -0.328125 C 1.914062 -0.160156 1.8125 -0.101562 1.6875 -0.15625 C 1.5625 -0.21875 1.441406 -0.320312 1.328125 -0.46875 C 1.222656 -0.625 1.132812 -0.804688 1.0625 -1.015625 C 1 -1.234375 1.007812 -1.425781 1.09375 -1.59375 C 3.125 -5.820312 5.007812 -10.179688 6.75 -14.671875 C 8.488281 -19.160156 9.832031 -23.757812 10.78125 -28.46875 Z M 1.09375 -13.46875 C 0.925781 -13.46875 0.753906 -13.5 0.578125 -13.5625 C 0.410156 -13.632812 0.28125 -13.71875 0.1875 -13.8125 C 0.09375 -13.914062 0.0546875 -14.019531 0.078125 -14.125 C 0.109375 -14.238281 0.234375 -14.335938 0.453125 -14.421875 C 2.210938 -14.898438 3.878906 -15.3125 5.453125 -15.65625 C 7.023438 -16.007812 8.59375 -16.421875 10.15625 -16.890625 C 10.632812 -17.023438 10.976562 -16.992188 11.1875 -16.796875 C 11.394531 -16.609375 11.257812 -16.429688 10.78125 -16.265625 C 9.195312 -15.617188 7.582031 -15.109375 5.9375 -14.734375 C 4.289062 -14.359375 2.675781 -13.9375 1.09375 -13.46875 Z M 1.09375 -13.46875 "/></g></g></g><g fill="#777370" fill-opacity="1"><g transform="translate(282.385562, 98.573157)"><g><path d="M 10.65625 -16.21875 C 10.800781 -16.21875 10.921875 -16.140625 11.015625 -15.984375 C 11.109375 -15.835938 11.160156 -15.679688 11.171875 -15.515625 C 11.191406 -15.347656 11.160156 -15.207031 11.078125 -15.09375 C 10.992188 -14.976562 10.851562 -14.960938 10.65625 -15.046875 C 9.9375 -15.160156 9.238281 -15.007812 8.5625 -14.59375 C 7.894531 -14.175781 7.34375 -13.742188 6.90625 -13.296875 C 6.039062 -12.566406 5.304688 -11.785156 4.703125 -10.953125 C 4.109375 -10.117188 3.585938 -9.269531 3.140625 -8.40625 C 2.910156 -8.039062 2.679688 -7.640625 2.453125 -7.203125 C 2.234375 -6.773438 2.035156 -6.335938 1.859375 -5.890625 C 1.679688 -5.441406 1.539062 -4.988281 1.4375 -4.53125 C 1.34375 -4.070312 1.320312 -3.617188 1.375 -3.171875 C 1.457031 -2.671875 1.617188 -2.285156 1.859375 -2.015625 C 2.097656 -1.753906 2.375 -1.585938 2.6875 -1.515625 C 3.007812 -1.453125 3.359375 -1.460938 3.734375 -1.546875 C 4.117188 -1.628906 4.488281 -1.78125 4.84375 -2 C 5.875 -2.445312 6.835938 -3.019531 7.734375 -3.71875 C 8.628906 -4.414062 9.507812 -5.210938 10.375 -6.109375 C 10.925781 -6.804688 11.519531 -7.515625 12.15625 -8.234375 C 12.800781 -8.960938 13.28125 -9.6875 13.59375 -10.40625 C 13.78125 -10.820312 13.953125 -11.300781 14.109375 -11.84375 C 14.265625 -12.394531 14.320312 -12.90625 14.28125 -13.375 C 14.238281 -13.851562 14.078125 -14.25 13.796875 -14.5625 C 13.515625 -14.882812 13.054688 -15.046875 12.421875 -15.046875 C 11.390625 -15.046875 10.390625 -14.800781 9.421875 -14.3125 C 8.460938 -13.832031 7.625 -13.3125 6.90625 -12.75 C 6.757812 -12.582031 6.601562 -12.519531 6.4375 -12.5625 C 6.269531 -12.601562 6.125 -12.703125 6 -12.859375 C 5.875 -13.015625 5.78125 -13.1875 5.71875 -13.375 C 5.664062 -13.570312 5.671875 -13.738281 5.734375 -13.875 C 6.617188 -14.46875 7.5 -15.003906 8.375 -15.484375 C 9.257812 -15.972656 10.21875 -16.21875 11.25 -16.21875 C 12.113281 -16.363281 12.925781 -16.273438 13.6875 -15.953125 C 14.457031 -15.628906 14.992188 -15.035156 15.296875 -14.171875 C 15.441406 -13.671875 15.5 -13.148438 15.46875 -12.609375 C 15.4375 -12.066406 15.351562 -11.539062 15.21875 -11.03125 C 15.082031 -10.53125 14.890625 -10.054688 14.640625 -9.609375 C 14.390625 -9.171875 14.125 -8.769531 13.84375 -8.40625 C 13.113281 -7.375 12.332031 -6.375 11.5 -5.40625 C 10.664062 -4.445312 9.816406 -3.609375 8.953125 -2.890625 C 8.054688 -2.160156 7.117188 -1.507812 6.140625 -0.9375 C 5.171875 -0.363281 4.171875 -0.148438 3.140625 -0.296875 C 2.359375 -0.378906 1.753906 -0.597656 1.328125 -0.953125 C 0.910156 -1.316406 0.617188 -1.753906 0.453125 -2.265625 C 0.285156 -2.785156 0.226562 -3.359375 0.28125 -3.984375 C 0.34375 -4.617188 0.457031 -5.253906 0.625 -5.890625 C 0.789062 -6.535156 1 -7.144531 1.25 -7.71875 C 1.5 -8.289062 1.75 -8.796875 2 -9.234375 C 2.5625 -10.265625 3.203125 -11.257812 3.921875 -12.21875 C 4.648438 -13.1875 5.445312 -14.035156 6.3125 -14.765625 C 6.59375 -14.953125 6.898438 -15.164062 7.234375 -15.40625 C 7.566406 -15.644531 7.914062 -15.847656 8.28125 -16.015625 C 8.644531 -16.179688 9.023438 -16.289062 9.421875 -16.34375 C 9.828125 -16.40625 10.238281 -16.363281 10.65625 -16.21875 Z M 10.65625 -16.21875 "/></g></g></g><g fill="#777370" fill-opacity="1"><g transform="translate(220.476132, 149.959023)"><g><path d="M 8.875 0 L 7.59375 -3.890625 L 2.734375 -3.890625 L 1.46875 0 L 0.8125 0 L 4.75 -12.03125 L 5.59375 -12.03125 L 9.53125 0 Z M 5.203125 -11.34375 L 5.125 -11.34375 L 2.890625 -4.453125 L 7.4375 -4.453125 Z M 5.203125 -11.34375 "/></g></g></g><g fill="#777370" fill-opacity="1"><g transform="translate(230.813494, 149.959023)"><g><path d="M 2.40625 0 L 1.796875 0 L 1.796875 -12.03125 L 6.03125 -12.03125 C 7.050781 -12.03125 7.820312 -11.734375 8.34375 -11.140625 C 8.875 -10.546875 9.140625 -9.742188 9.140625 -8.734375 C 9.140625 -7.742188 8.882812 -6.957031 8.375 -6.375 C 7.875 -5.789062 7.132812 -5.488281 6.15625 -5.46875 L 5.65625 -5.46875 L 9.09375 0 L 8.375 0 L 4.96875 -5.453125 L 2.40625 -5.453125 Z M 6.03125 -6 C 6.445312 -6 6.804688 -6.0625 7.109375 -6.1875 C 7.410156 -6.3125 7.660156 -6.476562 7.859375 -6.6875 C 8.066406 -6.90625 8.21875 -7.15625 8.3125 -7.4375 C 8.414062 -7.726562 8.46875 -8.035156 8.46875 -8.359375 L 8.46875 -9.109375 C 8.46875 -9.421875 8.414062 -9.71875 8.3125 -10 C 8.21875 -10.289062 8.066406 -10.539062 7.859375 -10.75 C 7.660156 -10.96875 7.410156 -11.140625 7.109375 -11.265625 C 6.804688 -11.390625 6.445312 -11.453125 6.03125 -11.453125 L 2.40625 -11.453125 L 2.40625 -6 Z M 6.03125 -6 "/></g></g></g><g fill="#777370" fill-opacity="1"><g transform="translate(241.150857, 149.959023)"><g><path d="M 8.25 2.46875 L 5.71875 2.46875 C 5.425781 2.46875 5.207031 2.390625 5.0625 2.234375 C 4.925781 2.078125 4.859375 1.867188 4.859375 1.609375 L 4.859375 0.1875 C 3.648438 0.101562 2.726562 -0.429688 2.09375 -1.421875 C 1.46875 -2.410156 1.15625 -3.941406 1.15625 -6.015625 C 1.15625 -8.160156 1.492188 -9.734375 2.171875 -10.734375 C 2.859375 -11.734375 3.859375 -12.234375 5.171875 -12.234375 C 6.484375 -12.234375 7.476562 -11.734375 8.15625 -10.734375 C 8.84375 -9.734375 9.1875 -8.160156 9.1875 -6.015625 C 9.1875 -3.941406 8.863281 -2.410156 8.21875 -1.421875 C 7.582031 -0.429688 6.671875 0.101562 5.484375 0.1875 L 5.484375 1.90625 L 8.25 1.90625 Z M 5.171875 -0.359375 C 6.285156 -0.359375 7.117188 -0.78125 7.671875 -1.625 C 8.222656 -2.46875 8.5 -3.710938 8.5 -5.359375 L 8.5 -6.671875 C 8.5 -8.316406 8.222656 -9.5625 7.671875 -10.40625 C 7.117188 -11.25 6.285156 -11.671875 5.171875 -11.671875 C 4.054688 -11.671875 3.222656 -11.25 2.671875 -10.40625 C 2.117188 -9.5625 1.84375 -8.316406 1.84375 -6.671875 L 1.84375 -5.359375 C 1.84375 -3.710938 2.117188 -2.46875 2.671875 -1.625 C 3.222656 -0.78125 4.054688 -0.359375 5.171875 -0.359375 Z M 5.171875 -0.359375 "/></g></g></g><g fill="#777370" fill-opacity="1"><g transform="translate(251.48822, 149.959023)"><g><path d="M 2.234375 -12.03125 L 2.234375 -4.71875 C 2.234375 -3.90625 2.273438 -3.21875 2.359375 -2.65625 C 2.441406 -2.101562 2.59375 -1.65625 2.8125 -1.3125 C 3.03125 -0.976562 3.328125 -0.734375 3.703125 -0.578125 C 4.085938 -0.429688 4.578125 -0.359375 5.171875 -0.359375 C 5.765625 -0.359375 6.25 -0.429688 6.625 -0.578125 C 7.007812 -0.734375 7.3125 -0.976562 7.53125 -1.3125 C 7.75 -1.65625 7.894531 -2.101562 7.96875 -2.65625 C 8.050781 -3.21875 8.09375 -3.90625 8.09375 -4.71875 L 8.09375 -12.03125 L 8.71875 -12.03125 L 8.71875 -4.8125 C 8.71875 -3.875 8.660156 -3.085938 8.546875 -2.453125 C 8.441406 -1.816406 8.253906 -1.300781 7.984375 -0.90625 C 7.710938 -0.507812 7.347656 -0.222656 6.890625 -0.046875 C 6.441406 0.117188 5.867188 0.203125 5.171875 0.203125 C 4.472656 0.203125 3.894531 0.117188 3.4375 -0.046875 C 2.976562 -0.222656 2.613281 -0.507812 2.34375 -0.90625 C 2.082031 -1.300781 1.894531 -1.816406 1.78125 -2.453125 C 1.675781 -3.085938 1.625 -3.875 1.625 -4.8125 L 1.625 -12.03125 Z M 2.234375 -12.03125 "/></g></g></g><g fill="#777370" fill-opacity="1"><g transform="translate(261.825582, 149.959023)"><g><path d="M 1.546875 0 L 1.546875 -0.515625 L 4.859375 -0.515625 L 4.859375 -11.515625 L 1.546875 -11.515625 L 1.546875 -12.03125 L 8.796875 -12.03125 L 8.796875 -11.515625 L 5.484375 -11.515625 L 5.484375 -0.515625 L 8.796875 -0.515625 L 8.796875 0 Z M 1.546875 0 "/></g></g></g><g fill="#777370" fill-opacity="1"><g transform="translate(272.162945, 149.959023)"><g><path d="M 5.484375 -11.453125 L 5.484375 0 L 4.859375 0 L 4.859375 -11.453125 L 0.640625 -11.453125 L 0.640625 -12.03125 L 9.703125 -12.03125 L 9.703125 -11.453125 Z M 5.484375 -11.453125 "/></g></g></g><g fill="#777370" fill-opacity="1"><g transform="translate(282.500307, 149.959023)"><g><path d="M 1.796875 0 L 1.796875 -12.03125 L 8.875 -12.03125 L 8.875 -11.453125 L 2.40625 -11.453125 L 2.40625 -6.390625 L 8.65625 -6.390625 L 8.65625 -5.828125 L 2.40625 -5.828125 L 2.40625 -0.5625 L 8.875 -0.5625 L 8.875 0 Z M 1.796875 0 "/></g></g></g><g fill="#777370" fill-opacity="1"><g transform="translate(292.83767, 149.959023)"><g><path d="M 5.59375 0.203125 C 4.207031 0.203125 3.148438 -0.289062 2.421875 -1.28125 C 1.691406 -2.28125 1.328125 -3.859375 1.328125 -6.015625 C 1.328125 -8.160156 1.691406 -9.734375 2.421875 -10.734375 C 3.148438 -11.734375 4.207031 -12.234375 5.59375 -12.234375 C 6.476562 -12.234375 7.203125 -12 7.765625 -11.53125 C 8.328125 -11.070312 8.742188 -10.476562 9.015625 -9.75 L 8.46875 -9.53125 C 8.238281 -10.1875 7.882812 -10.707031 7.40625 -11.09375 C 6.9375 -11.476562 6.332031 -11.671875 5.59375 -11.671875 C 4.414062 -11.671875 3.523438 -11.25 2.921875 -10.40625 C 2.316406 -9.5625 2.015625 -8.316406 2.015625 -6.671875 L 2.015625 -5.359375 C 2.015625 -3.710938 2.316406 -2.46875 2.921875 -1.625 C 3.523438 -0.78125 4.414062 -0.359375 5.59375 -0.359375 C 6.332031 -0.359375 6.9375 -0.550781 7.40625 -0.9375 C 7.882812 -1.320312 8.238281 -1.84375 8.46875 -2.5 L 9.015625 -2.28125 C 8.742188 -1.550781 8.328125 -0.953125 7.765625 -0.484375 C 7.203125 -0.0234375 6.476562 0.203125 5.59375 0.203125 Z M 5.59375 0.203125 "/></g></g></g><g fill="#777370" fill-opacity="1"><g transform="translate(303.175033, 149.959023)"><g><path d="M 5.484375 -11.453125 L 5.484375 0 L 4.859375 0 L 4.859375 -11.453125 L 0.640625 -11.453125 L 0.640625 -12.03125 L 9.703125 -12.03125 L 9.703125 -11.453125 Z M 5.484375 -11.453125 "/></g></g></g><g fill="#777370" fill-opacity="1"><g transform="translate(313.512395, 149.959023)"><g><path d="M 2.234375 -12.03125 L 2.234375 -4.71875 C 2.234375 -3.90625 2.273438 -3.21875 2.359375 -2.65625 C 2.441406 -2.101562 2.59375 -1.65625 2.8125 -1.3125 C 3.03125 -0.976562 3.328125 -0.734375 3.703125 -0.578125 C 4.085938 -0.429688 4.578125 -0.359375 5.171875 -0.359375 C 5.765625 -0.359375 6.25 -0.429688 6.625 -0.578125 C 7.007812 -0.734375 7.3125 -0.976562 7.53125 -1.3125 C 7.75 -1.65625 7.894531 -2.101562 7.96875 -2.65625 C 8.050781 -3.21875 8.09375 -3.90625 8.09375 -4.71875 L 8.09375 -12.03125 L 8.71875 -12.03125 L 8.71875 -4.8125 C 8.71875 -3.875 8.660156 -3.085938 8.546875 -2.453125 C 8.441406 -1.816406 8.253906 -1.300781 7.984375 -0.90625 C 7.710938 -0.507812 7.347656 -0.222656 6.890625 -0.046875 C 6.441406 0.117188 5.867188 0.203125 5.171875 0.203125 C 4.472656 0.203125 3.894531 0.117188 3.4375 -0.046875 C 2.976562 -0.222656 2.613281 -0.507812 2.34375 -0.90625 C 2.082031 -1.300781 1.894531 -1.816406 1.78125 -2.453125 C 1.675781 -3.085938 1.625 -3.875 1.625 -4.8125 L 1.625 -12.03125 Z M 2.234375 -12.03125 "/></g></g></g><g fill="#777370" fill-opacity="1"><g transform="translate(323.849758, 149.959023)"><g><path d="M 2.40625 0 L 1.796875 0 L 1.796875 -12.03125 L 6.03125 -12.03125 C 7.050781 -12.03125 7.820312 -11.734375 8.34375 -11.140625 C 8.875 -10.546875 9.140625 -9.742188 9.140625 -8.734375 C 9.140625 -7.742188 8.882812 -6.957031 8.375 -6.375 C 7.875 -5.789062 7.132812 -5.488281 6.15625 -5.46875 L 5.65625 -5.46875 L 9.09375 0 L 8.375 0 L 4.96875 -5.453125 L 2.40625 -5.453125 Z M 6.03125 -6 C 6.445312 -6 6.804688 -6.0625 7.109375 -6.1875 C 7.410156 -6.3125 7.660156 -6.476562 7.859375 -6.6875 C 8.066406 -6.90625 8.21875 -7.15625 8.3125 -7.4375 C 8.414062 -7.726562 8.46875 -8.035156 8.46875 -8.359375 L 8.46875 -9.109375 C 8.46875 -9.421875 8.414062 -9.71875 8.3125 -10 C 8.21875 -10.289062 8.066406 -10.539062 7.859375 -10.75 C 7.660156 -10.96875 7.410156 -11.140625 7.109375 -11.265625 C 6.804688 -11.390625 6.445312 -11.453125 6.03125 -11.453125 L 2.40625 -11.453125 L 2.40625 -6 Z M 6.03125 -6 "/></g></g></g><g fill="#777370" fill-opacity="1"><g transform="translate(334.18712, 149.959023)"><g><path d="M 8.875 0 L 7.59375 -3.890625 L 2.734375 -3.890625 L 1.46875 0 L 0.8125 0 L 4.75 -12.03125 L 5.59375 -12.03125 L 9.53125 0 Z M 5.203125 -11.34375 L 5.125 -11.34375 L 2.890625 -4.453125 L 7.4375 -4.453125 Z M 5.203125 -11.34375 "/></g></g></g><g fill="#777370" fill-opacity="1"><g transform="translate(220.476132, 173.254468)"><g><path d="M 1.8125 -12.03125 L 5 -12.03125 C 6.445312 -12.03125 7.503906 -11.523438 8.171875 -10.515625 C 8.835938 -9.503906 9.171875 -8.003906 9.171875 -6.015625 C 9.171875 -4.023438 8.835938 -2.523438 8.171875 -1.515625 C 7.503906 -0.503906 6.445312 0 5 0 L 1.8125 0 Z M 5 -0.5625 C 6.207031 -0.5625 7.085938 -0.988281 7.640625 -1.84375 C 8.203125 -2.695312 8.484375 -3.875 8.484375 -5.375 L 8.484375 -6.65625 C 8.484375 -8.15625 8.203125 -9.328125 7.640625 -10.171875 C 7.085938 -11.023438 6.207031 -11.453125 5 -11.453125 L 2.4375 -11.453125 L 2.4375 -0.5625 Z M 5 -0.5625 "/></g></g></g><g fill="#777370" fill-opacity="1"><g transform="translate(230.813494, 173.254468)"><g><path d="M 1.546875 0 L 1.546875 -0.515625 L 4.859375 -0.515625 L 4.859375 -11.515625 L 1.546875 -11.515625 L 1.546875 -12.03125 L 8.796875 -12.03125 L 8.796875 -11.515625 L 5.484375 -11.515625 L 5.484375 -0.515625 L 8.796875 -0.515625 L 8.796875 0 Z M 1.546875 0 "/></g></g></g><g fill="#777370" fill-opacity="1"><g transform="translate(241.150857, 173.254468)"><g><path d="M 5.21875 0.203125 C 4.675781 0.203125 4.195312 0.148438 3.78125 0.046875 C 3.363281 -0.046875 2.988281 -0.179688 2.65625 -0.359375 C 2.320312 -0.535156 2.023438 -0.742188 1.765625 -0.984375 C 1.503906 -1.234375 1.265625 -1.503906 1.046875 -1.796875 L 1.53125 -2.171875 C 1.957031 -1.609375 2.445312 -1.160156 3 -0.828125 C 3.5625 -0.503906 4.300781 -0.34375 5.21875 -0.34375 C 6.269531 -0.34375 7.082031 -0.578125 7.65625 -1.046875 C 8.226562 -1.523438 8.515625 -2.210938 8.515625 -3.109375 C 8.515625 -3.554688 8.441406 -3.929688 8.296875 -4.234375 C 8.160156 -4.546875 7.972656 -4.804688 7.734375 -5.015625 C 7.492188 -5.222656 7.207031 -5.382812 6.875 -5.5 C 6.550781 -5.613281 6.203125 -5.695312 5.828125 -5.75 L 4.453125 -5.984375 C 3.835938 -6.085938 3.332031 -6.238281 2.9375 -6.4375 C 2.539062 -6.644531 2.226562 -6.882812 2 -7.15625 C 1.769531 -7.4375 1.601562 -7.742188 1.5 -8.078125 C 1.40625 -8.421875 1.359375 -8.773438 1.359375 -9.140625 C 1.359375 -10.179688 1.703125 -10.957031 2.390625 -11.46875 C 3.078125 -11.976562 4.003906 -12.234375 5.171875 -12.234375 C 6.148438 -12.234375 6.9375 -12.078125 7.53125 -11.765625 C 8.132812 -11.460938 8.617188 -11.050781 8.984375 -10.53125 L 8.515625 -10.140625 C 8.160156 -10.640625 7.71875 -11.019531 7.1875 -11.28125 C 6.65625 -11.550781 5.972656 -11.6875 5.140625 -11.6875 C 4.148438 -11.6875 3.378906 -11.472656 2.828125 -11.046875 C 2.273438 -10.628906 2 -10 2 -9.15625 C 2 -8.726562 2.0625 -8.363281 2.1875 -8.0625 C 2.320312 -7.769531 2.507812 -7.519531 2.75 -7.3125 C 2.988281 -7.113281 3.265625 -6.953125 3.578125 -6.828125 C 3.898438 -6.710938 4.257812 -6.625 4.65625 -6.5625 L 6.015625 -6.34375 C 6.640625 -6.238281 7.148438 -6.078125 7.546875 -5.859375 C 7.953125 -5.648438 8.273438 -5.398438 8.515625 -5.109375 C 8.753906 -4.828125 8.921875 -4.515625 9.015625 -4.171875 C 9.109375 -3.828125 9.15625 -3.476562 9.15625 -3.125 C 9.15625 -2.03125 8.800781 -1.203125 8.09375 -0.640625 C 7.394531 -0.078125 6.4375 0.203125 5.21875 0.203125 Z M 5.21875 0.203125 "/></g></g></g><g fill="#777370" fill-opacity="1"><g transform="translate(251.48822, 173.254468)"><g><path d="M 1.796875 0 L 1.796875 -12.03125 L 8.875 -12.03125 L 8.875 -11.453125 L 2.40625 -11.453125 L 2.40625 -6.390625 L 8.65625 -6.390625 L 8.65625 -5.828125 L 2.40625 -5.828125 L 2.40625 -0.5625 L 8.875 -0.5625 L 8.875 0 Z M 1.796875 0 "/></g></g></g><g fill="#777370" fill-opacity="1"><g transform="translate(261.825582, 173.254468)"><g><path d="M 2.28125 -11.203125 L 2.203125 -11.203125 L 2.203125 0 L 1.625 0 L 1.625 -12.03125 L 2.515625 -12.03125 L 8.0625 -0.859375 L 8.140625 -0.859375 L 8.140625 -12.03125 L 8.71875 -12.03125 L 8.71875 0 L 7.828125 0 Z M 6.390625 -13.828125 C 6.171875 -13.828125 5.960938 -13.867188 5.765625 -13.953125 C 5.566406 -14.035156 5.332031 -14.160156 5.0625 -14.328125 C 4.800781 -14.484375 4.582031 -14.59375 4.40625 -14.65625 C 4.238281 -14.71875 4.070312 -14.75 3.90625 -14.75 C 3.707031 -14.75 3.519531 -14.707031 3.34375 -14.625 C 3.164062 -14.539062 2.988281 -14.40625 2.8125 -14.21875 L 2.515625 -14.53125 C 2.710938 -14.757812 2.925781 -14.9375 3.15625 -15.0625 C 3.394531 -15.195312 3.660156 -15.265625 3.953125 -15.265625 C 4.171875 -15.265625 4.378906 -15.222656 4.578125 -15.140625 C 4.773438 -15.054688 5.007812 -14.929688 5.28125 -14.765625 C 5.539062 -14.609375 5.753906 -14.5 5.921875 -14.4375 C 6.097656 -14.375 6.265625 -14.34375 6.421875 -14.34375 C 6.628906 -14.34375 6.816406 -14.382812 6.984375 -14.46875 C 7.160156 -14.550781 7.34375 -14.6875 7.53125 -14.875 L 7.828125 -14.5625 C 7.628906 -14.332031 7.410156 -14.148438 7.171875 -14.015625 C 6.941406 -13.890625 6.679688 -13.828125 6.390625 -13.828125 Z M 6.390625 -13.828125 "/></g></g></g><g fill="#777370" fill-opacity="1"><g transform="translate(272.162945, 173.254468)"><g><path d="M 5.171875 0.203125 C 3.859375 0.203125 2.859375 -0.296875 2.171875 -1.296875 C 1.492188 -2.296875 1.15625 -3.867188 1.15625 -6.015625 C 1.15625 -8.160156 1.492188 -9.734375 2.171875 -10.734375 C 2.859375 -11.734375 3.859375 -12.234375 5.171875 -12.234375 C 6.484375 -12.234375 7.476562 -11.734375 8.15625 -10.734375 C 8.84375 -9.734375 9.1875 -8.160156 9.1875 -6.015625 C 9.1875 -3.867188 8.84375 -2.296875 8.15625 -1.296875 C 7.476562 -0.296875 6.484375 0.203125 5.171875 0.203125 Z M 5.171875 -0.359375 C 6.285156 -0.359375 7.117188 -0.78125 7.671875 -1.625 C 8.222656 -2.46875 8.5 -3.710938 8.5 -5.359375 L 8.5 -6.671875 C 8.5 -8.316406 8.222656 -9.5625 7.671875 -10.40625 C 7.117188 -11.25 6.285156 -11.671875 5.171875 -11.671875 C 4.054688 -11.671875 3.222656 -11.25 2.671875 -10.40625 C 2.117188 -9.5625 1.84375 -8.316406 1.84375 -6.671875 L 1.84375 -5.359375 C 1.84375 -3.710938 2.117188 -2.46875 2.671875 -1.625 C 3.222656 -0.78125 4.054688 -0.359375 5.171875 -0.359375 Z M 5.171875 -0.359375 "/></g></g></g></svg>